<svg xmlns="http://www.w3.org/2000/svg" xmlns:xlink="http://www.w3.org/1999/xlink" width="2000" zoomAndPan="magnify" viewBox="0 0 1500 1499.999933" height="2000" preserveAspectRatio="xMidYMid meet" version="1.0"><path fill="#d9d9d9" d="M 702.671875 1489.171875 C 421.902344 1403.71875 265.375 1247.160156 183.539062 1130.855469 C 92.4375 1001.4375 69.613281 888.523438 68.691406 883.761719 L 66.789062 872.9375 L 66.789062 811.199219 C 42.378906 795.546875 29.902344 780.46875 28.472656 778.691406 L 0 743.773438 L 41.742188 726.285156 L 44.3125 725.207031 C 48.1875 723.554688 56.089844 720.222656 66.789062 715.652344 L 66.789062 167.949219 L 171.035156 167.949219 C 462.054688 167.949219 669.5 43.769531 678.195312 38.46875 L 733.113281 4.28125 L 788.378906 38.691406 C 788.695312 38.882812 827.167969 62.246094 893.035156 88.847656 C 917.667969 80.6875 933.953125 75.164062 935.0625 74.785156 L 980.773438 59.261719 L 980.109375 107.164062 C 980.109375 107.289062 980.109375 111.796875 979.472656 119.480469 C 1083.496094 151.667969 1189.644531 167.984375 1295.128906 167.984375 L 1399.375 167.984375 L 1399.375 651.972656 C 1412.578125 654.832031 1424.101562 657.019531 1435.054688 658.703125 L 1502.601562 669.148438 L 1453.464844 716.414062 C 1436.578125 732.632812 1418.832031 746.726562 1399.375 759.359375 L 1399.375 873.859375 L 1397.46875 883.699219 C 1395.023438 895.859375 1371.1875 1005.117188 1282.652344 1130.886719 C 1200.722656 1247.191406 1044.132812 1403.75 763.425781 1489.203125 L 733.082031 1498.472656 Z M 702.671875 1489.171875 " fill-opacity="1" fill-rule="nonzero"/><path fill="#545454" d="M 1358.488281 208.835938 L 1358.488281 669.941406 C 1354.488281 668.925781 1350.457031 667.941406 1346.425781 666.925781 C 1331.664062 663.117188 1316.90625 659.210938 1302.175781 655.210938 L 1302.175781 265.179688 L 1295.128906 265.179688 C 1172.1875 265.179688 1049.277344 245.214844 929.667969 205.882812 C 938.460938 186.804688 943.984375 168.109375 947.476562 152.144531 C 1061.6875 189.695312 1178.597656 208.835938 1295.128906 208.835938 Z M 1339.125 761.074219 C 1333.1875 763.648438 1326.9375 765.550781 1320.746094 767.582031 C 1314.554688 769.171875 1308.082031 770.851562 1302.144531 772.058594 L 1302.144531 864.527344 L 1302.050781 865.195312 C 1301.285156 869.097656 1282.496094 962.167969 1203.136719 1074.921875 C 1130.03125 1178.722656 989.503906 1318.773438 735.113281 1396.195312 L 733.082031 1396.832031 L 731.050781 1396.195312 C 476.65625 1318.773438 336.128906 1178.722656 263.027344 1074.921875 C 183.667969 962.167969 164.90625 869.097656 164.144531 865.195312 L 164.019531 863.859375 L 164.019531 818.785156 C 141.925781 815.546875 123.195312 809.644531 107.671875 802.753906 L 107.671875 869.921875 L 108.847656 875.953125 C 109.703125 880.335938 131.101562 985.308594 216.996094 1107.332031 C 295.179688 1218.402344 444.945312 1367.976562 714.636719 1450.066406 L 733.113281 1455.683594 L 751.554688 1450.066406 C 1021.214844 1367.976562 1171.042969 1218.371094 1249.257812 1107.332031 C 1335.0625 985.40625 1356.488281 880.335938 1357.347656 875.890625 L 1358.519531 869.953125 L 1358.519531 752.21875 C 1352.203125 755.457031 1345.757812 758.441406 1339.125 761.074219 Z M 766.792969 73.417969 L 733.082031 52.46875 L 699.496094 73.355469 C 690.417969 78.910156 474.976562 208.835938 171 208.835938 L 107.640625 208.835938 L 107.640625 727.363281 C 124.59375 720.160156 144.019531 711.777344 163.984375 703.113281 L 163.984375 265.179688 L 171.035156 265.179688 C 495.703125 265.179688 727.050781 122.527344 729.335938 121.128906 L 733.082031 118.78125 L 736.828125 121.128906 C 737.050781 121.226562 756.285156 133.191406 790.726562 149.953125 C 818.660156 141.285156 846.882812 132.175781 871.386719 124.175781 C 805.867188 97.226562 768.507812 74.464844 766.792969 73.417969 Z M 766.792969 73.417969 " fill-opacity="1" fill-rule="nonzero"/><path fill="#545454" d="M 722.828125 1423.148438 C 460.785156 1343.375 315.59375 1198.5625 239.980469 1091.109375 C 157.191406 973.503906 137.289062 874.714844 136.496094 870.558594 L 135.863281 867.226562 L 135.863281 236.992188 L 171.066406 236.992188 C 486.847656 236.992188 712.195312 98.625 714.414062 97.226562 L 733.113281 85.546875 L 751.808594 97.226562 C 754.03125 98.589844 979.378906 236.960938 1295.128906 236.960938 L 1330.332031 236.960938 L 1330.332031 867.226562 L 1329.699219 870.558594 C 1328.902344 874.714844 1309 973.5 1226.214844 1091.109375 C 1150.570312 1198.53125 1005.40625 1343.34375 743.367188 1423.148438 L 733.113281 1426.257812 Z M 722.828125 1423.148438 " fill-opacity="1" fill-rule="nonzero"/><path fill="#d9d9d9" d="M 1218.59375 945.34375 L 1217.359375 947.503906 C 1216.46875 949.121094 1215.546875 950.105469 1214.691406 951.441406 C 1211.039062 956.234375 1207.230469 960.136719 1203.390625 964.074219 C 1187.898438 979.34375 1171.519531 992.769531 1155.109375 1006.230469 C 1122.316406 1033.019531 1088.734375 1058.667969 1057.054688 1085.90625 C 1053.148438 1089.332031 1049.246094 1092.792969 1045.46875 1096.316406 C 1041.625 1099.808594 1038.070312 1103.332031 1034.101562 1107.078125 C 1026.390625 1114.507812 1018.453125 1121.617188 1010.519531 1128.664062 C 994.519531 1142.726562 978.265625 1156.34375 961.507812 1169.359375 C 944.808594 1182.46875 927.667969 1194.910156 909.988281 1206.753906 C 905.605469 1209.734375 901.097656 1212.5625 896.589844 1215.386719 C 892.148438 1218.273438 887.574219 1221.003906 882.972656 1223.671875 C 873.734375 1228.941406 864.46875 1234.210938 854.46875 1237.890625 C 863.484375 1232.335938 871.734375 1225.734375 880.117188 1219.386719 C 888.371094 1212.847656 896.589844 1206.308594 904.683594 1199.546875 C 921 1186.246094 937.03125 1172.597656 953.03125 1158.976562 C 968.964844 1145.265625 984.902344 1131.519531 1000.296875 1117.332031 C 1008.011719 1110.21875 1015.660156 1103.046875 1022.960938 1095.683594 C 1026.582031 1092.09375 1030.421875 1088.0625 1034.324219 1084.414062 C 1038.230469 1080.730469 1042.199219 1077.082031 1046.199219 1073.523438 C 1078.164062 1045.210938 1111.652344 1019.433594 1144.441406 993.023438 C 1152.632812 986.453125 1160.824219 979.820312 1168.855469 973.089844 C 1176.851562 966.359375 1184.851562 959.628906 1192.25 952.582031 C 1195.867188 949.058594 1199.519531 945.472656 1202.34375 941.886719 C 1202.914062 941.027344 1203.773438 940.078125 1204.183594 939.347656 L 1204.882812 938.234375 C 1204.976562 937.949219 1205.007812 937.824219 1205.136719 937.632812 C 1205.261719 937.632812 1205.390625 936.742188 1205.515625 936.300781 L 1205.867188 934.648438 C 1206.152344 933.539062 1206.214844 932.394531 1206.40625 931.316406 C 1206.976562 926.839844 1206.820312 922.300781 1206.058594 917.824219 C 1205.675781 915.601562 1205.074219 913.410156 1204.34375 911.285156 C 1204.3125 911.191406 1204.277344 911.0625 1204.214844 910.96875 C 1183.519531 919.15625 1161.902344 919.347656 1142.949219 919.476562 C 1131.90625 919.539062 1121.460938 919.664062 1113.207031 921.410156 C 1104.730469 923.253906 1096.480469 923.949219 1088.828125 923.949219 C 1066.546875 923.949219 1049.402344 917.949219 1045.847656 916.617188 C 1037.53125 921.792969 1028.707031 926.203125 1019.46875 929.21875 C 998.421875 936.519531 976.265625 938.550781 955.316406 941.15625 C 952.714844 941.503906 950.078125 941.820312 947.539062 942.234375 C 945 942.617188 942.429688 942.964844 940.015625 943.535156 L 936.332031 944.265625 C 935.160156 944.582031 934.046875 944.964844 932.875 945.28125 C 931.824219 945.632812 930.398438 945.917969 929.667969 946.328125 C 928.746094 946.679688 927.921875 947.058594 927.066406 947.632812 C 923.636719 949.632812 920.492188 952.867188 917.765625 956.679688 C 915.003906 960.488281 912.683594 964.804688 910.652344 969.34375 C 902.496094 987.660156 898.304688 1008.738281 895.542969 1029.054688 L 893.894531 1041.304688 L 884.464844 1034.132812 L 884.402344 1034.066406 C 880.085938 1030.832031 875.832031 1027.496094 872.085938 1023.65625 C 868.277344 1019.910156 864.71875 1015.910156 861.515625 1011.6875 C 858.246094 1007.5 855.261719 1003.117188 852.5625 998.546875 C 851.707031 997.117188 850.914062 995.691406 850.117188 994.261719 C 842.339844 1002.863281 833.992188 1010.832031 824.976562 1017.972656 C 813.105469 1027.273438 800.695312 1035.8125 787.648438 1043.148438 C 781.234375 1047.050781 774.539062 1050.289062 767.96875 1053.8125 C 761.238281 1057.019531 754.570312 1060.445312 747.777344 1063.367188 C 734.222656 1069.527344 720.414062 1074.921875 706.574219 1080.097656 C 692.734375 1085.269531 678.738281 1090.03125 664.992188 1094.855469 C 661.691406 1096.125 657.945312 1097.238281 655.054688 1098.664062 L 650.421875 1100.632812 L 645.882812 1103.109375 C 639.820312 1106.378906 634.042969 1110.472656 628.359375 1114.664062 C 617.027344 1123.171875 606.394531 1132.917969 596.203125 1143.136719 C 586.109375 1153.359375 576.238281 1164.183594 567.253906 1175.230469 L 560.046875 1184.054688 L 555.414062 1173.867188 C 552.398438 1167.296875 549.699219 1160.597656 547.667969 1153.742188 C 545.636719 1146.914062 543.859375 1139.996094 542.621094 1133.042969 C 541.351562 1126.058594 540.367188 1119.109375 539.730469 1112.0625 C 539.542969 1110.0625 539.414062 1108.0625 539.289062 1106.03125 L 522.082031 1121.046875 L 510.878906 1130.789062 L 510.433594 1116.15625 L 510.050781 1103.585938 C 510.148438 1099.394531 510.117188 1095.207031 510.371094 1091.015625 C 510.878906 1082.605469 511.734375 1074.222656 513.320312 1065.875 C 514.910156 1057.558594 517.066406 1049.304688 520.019531 1041.273438 C 521.449219 1037.433594 523.003906 1033.625 524.875 1029.910156 C 520.6875 1029.910156 516.496094 1030.039062 512.304688 1029.65625 C 503.609375 1029.273438 494.941406 1027.75 486.433594 1025.785156 C 477.929688 1023.816406 469.644531 1020.832031 461.613281 1017.277344 C 457.613281 1015.46875 453.738281 1013.433594 449.898438 1011.246094 C 446.914062 1009.4375 444.121094 1007.722656 441.199219 1005.5625 C 424.664062 1008.101562 407.808594 1009.785156 390.664062 1009.023438 C 381.554688 1008.578125 372.382812 1007.371094 363.335938 1005.023438 C 354.320312 1002.707031 345.527344 998.898438 337.496094 994.039062 C 335.464844 992.867188 333.589844 991.5 331.621094 990.230469 C 330.417969 989.5 329.273438 988.835938 327.65625 988.359375 C 324.542969 987.34375 320.765625 986.960938 316.832031 986.929688 C 308.988281 986.867188 300.640625 988.105469 292.386719 989.785156 C 275.945312 993.308594 259.40625 998.609375 243.660156 1004.707031 L 237.089844 1007.277344 C 247.851562 1026.386719 260.421875 1046.605469 275.121094 1067.460938 C 346.734375 1168.976562 484.339844 1305.855469 733.238281 1382.132812 C 852.214844 1345.660156 945.699219 1295.347656 1018.769531 1241.671875 C 1114.253906 1169.769531 1174.410156 1052.542969 1174.410156 1052.542969 L 1112.222656 1083.554688 C 1180.820312 1032.289062 1216.152344 950.804688 1218.59375 945.34375 Z M 464.277344 1170.152344 C 446.25 1159.550781 429.011719 1147.773438 412.441406 1135.105469 C 395.964844 1122.347656 380.03125 1108.886719 365.015625 1094.507812 C 349.9375 1080.191406 335.464844 1065.144531 322.574219 1048.671875 C 339.464844 1060.921875 355.84375 1073.523438 372.128906 1086.191406 L 421.011719 1123.933594 C 437.359375 1136.410156 453.804688 1148.660156 470.277344 1160.914062 C 486.976562 1172.914062 503.832031 1184.660156 521.003906 1196.5625 C 501.164062 1189.929688 482.339844 1180.59375 464.277344 1170.152344 Z M 751.90625 1232.910156 C 732.828125 1241.480469 712.226562 1246.652344 691.5625 1248.78125 C 670.894531 1250.9375 650.039062 1250.050781 629.691406 1246.9375 C 610.773438 1243.957031 592.171875 1239.195312 574.492188 1232.148438 C 571.886719 1231.164062 570.492188 1230.527344 570.492188 1230.527344 C 705.210938 1256.304688 808.441406 1168.246094 808.441406 1168.246094 L 643.183594 1190.117188 C 674.449219 1182.628906 705.113281 1173.007812 735.460938 1162.597656 C 765.839844 1152.21875 795.871094 1140.882812 825.773438 1129.203125 C 855.675781 1117.523438 885.320312 1105.269531 914.9375 1092.824219 C 929.730469 1086.605469 944.460938 1080.222656 959.15625 1073.8125 C 973.886719 1067.429688 988.582031 1060.953125 1003.121094 1054.351562 L 1059.65625 1028.578125 L 1010.105469 1066.097656 C 977.410156 1090.890625 944.078125 1114.664062 910.335938 1137.933594 C 893.480469 1149.550781 876.433594 1160.914062 859.164062 1172.023438 C 841.898438 1183.101562 824.46875 1193.992188 806.726562 1204.308594 C 788.980469 1214.59375 770.886719 1224.464844 751.90625 1232.910156 Z M 682.449219 766.535156 C 680.734375 774.28125 669.46875 804.054688 661.691406 824.148438 C 657.753906 816.59375 655.375 809.929688 655.339844 809.863281 L 653.46875 804.5 L 647.882812 805.167969 C 629.28125 807.355469 600.773438 817.515625 587.949219 822.339844 L 562.300781 756.851562 L 572.492188 707.332031 C 583.949219 725.746094 604.933594 752.855469 635.566406 753.042969 C 655.945312 753.042969 669.308594 743.902344 677.179688 733.808594 C 680.703125 747.394531 683.5625 761.488281 682.449219 766.535156 Z M 864.054688 745.265625 L 880.308594 780.4375 C 838.753906 837.894531 762.125 807.007812 758.824219 805.644531 L 756.984375 804.882812 L 755.046875 805.199219 C 729.8125 809.070312 694.957031 820.6875 675.371094 827.703125 C 682.640625 809.007812 694.164062 778.628906 696.195312 769.613281 C 699.179688 756.027344 687.941406 719.96875 685.65625 712.855469 L 684.449219 709.113281 L 577.539062 682.636719 L 579.917969 671.019531 L 583.410156 671.144531 L 601.25 672.164062 C 648.898438 674.988281 696.609375 678.320312 744.285156 681.652344 L 858.085938 690.351562 L 707.941406 709.554688 L 715.367188 719.269531 C 734.289062 744.0625 756.09375 756.632812 780.21875 756.632812 L 780.757812 756.632812 C 830.183594 756.25 870.308594 702.859375 871.988281 700.605469 L 878.402344 691.90625 L 884.402344 692.351562 C 893.765625 708.667969 899.796875 730.410156 902.496094 741.742188 Z M 864.054688 745.265625 " fill-opacity="1" fill-rule="nonzero"/><path fill="#000000" d="M 573.984375 663.304688 L 886.304688 683.527344 L 896.875 701.90625 C 896.875 701.90625 855.070312 754.25 813.742188 775.390625 C 772.410156 796.53125 735.652344 772.121094 735.652344 772.121094 C 772.378906 779.867188 792.601562 765.773438 792.601562 765.773438 C 716.667969 776.660156 684.515625 709.144531 684.515625 709.144531 L 689.75 768.949219 L 660.800781 835.070312 L 653.5 804.5 L 664.484375 765.742188 C 575.378906 774.945312 562.332031 725.746094 562.332031 725.746094 Z M 893.765625 1041.402344 C 893.765625 1041.402344 920.019531 969.820312 951.699219 960.898438 C 983.378906 951.949219 1030.484375 952.203125 1048.386719 937.125 C 1048.386719 937.125 1090.859375 947.597656 1124.636719 942.203125 C 1124.636719 942.203125 1068.832031 1002.578125 1019.914062 1028.609375 C 970.996094 1054.636719 718.859375 1178.628906 595.535156 1173.800781 C 595.535156 1173.800781 616.203125 1203.417969 671.308594 1204.816406 C 671.308594 1204.816406 593.664062 1231.035156 537.859375 1218.625 C 537.859375 1218.625 582.425781 1271.636719 687.148438 1270.96875 C 791.871094 1270.269531 934.460938 1146.597656 934.460938 1146.597656 L 815.042969 1257.890625 C 815.042969 1257.890625 883.480469 1242.050781 933.761719 1206.210938 C 984.042969 1170.375 1116.320312 1058.097656 1116.320312 1058.097656 L 1077.75 1111.839844 L 1116.320312 1093.9375 L 1101.175781 1113.234375 L 1120.476562 1104.09375 C 1120.476562 1104.09375 1087.019531 1190.023438 988.394531 1262.90625 L 1077.78125 1205.578125 C 1077.78125 1205.578125 1220.914062 1018.195312 1218.59375 1016.132812 C 1216.246094 1014.070312 1221.769531 937.21875 1221.769531 937.21875 L 1204.535156 903.824219 L 1116.351562 911.0625 L 1075.019531 918.425781 L 1044.007812 909.953125 L 976.773438 930.394531 L 911.605469 942.265625 L 889.988281 981.976562 Z M 996.042969 1201.101562 C 996.042969 1201.101562 880.148438 1288.363281 737.84375 1331.535156 C 737.84375 1331.535156 863.769531 1349.914062 996.042969 1201.101562 Z M 521.003906 1196.5625 C 442.757812 1147.933594 313.5625 1012.671875 313.5625 1012.671875 C 254.773438 1095.269531 521.003906 1196.5625 521.003906 1196.5625 Z M 236.902344 1022.894531 C 236.902344 1022.894531 296.671875 993.945312 322.574219 1002.929688 C 348.480469 1011.910156 377.839844 1031.179688 431.136719 1022.894531 C 431.136719 1022.894531 486.625 1055.144531 524.589844 1048.671875 L 533.097656 1012.671875 L 442.152344 999.308594 L 385.015625 999.308594 L 331.367188 985.691406 L 309.910156 981.914062 L 246.265625 999.339844 L 230.902344 1002.960938 Z M 559.953125 1184.085938 C 559.953125 1184.085938 603.820312 1141.519531 667.214844 1122.632812 C 730.605469 1103.746094 821.328125 1047.84375 843.578125 1024.734375 C 865.832031 1001.625 865.832031 1001.625 865.832031 1001.625 L 849.101562 984.328125 L 782.0625 1033.941406 L 649.785156 1087.332031 L 585.472656 1139.296875 Z M 559.953125 1184.085938 " fill-opacity="1" fill-rule="nonzero"/><path fill="#545454" d="M 1144.09375 860.304688 C 1109.492188 842.402344 1064.039062 847.925781 1064.039062 847.925781 C 1064.039062 847.925781 1107.746094 832.085938 1144.09375 839.640625 C 1144.09375 839.640625 1133.363281 798.308594 1104.320312 790.789062 C 1101.558594 790.214844 1098.796875 789.675781 1095.90625 789.230469 C 1092.957031 788.820312 1090.003906 788.375 1086.988281 787.929688 C 1034.324219 780.25 974.773438 771.582031 966.488281 698.605469 L 900.972656 693.589844 C 912.367188 717.398438 917.796875 745.363281 918.082031 746.726562 L 919.511719 754.378906 L 885.226562 757.488281 L 896.464844 781.742188 L 894.304688 785.042969 C 850.691406 850.75 769.109375 824.402344 755.398438 819.386719 C 720.636719 825.195312 666.230469 846.085938 665.691406 846.273438 L 660.769531 848.179688 L 657.5625 843.988281 C 651.34375 835.800781 646.675781 825.957031 644.167969 819.925781 C 621.375 824.085938 586.902344 837.832031 586.523438 837.957031 L 579.953125 840.59375 L 557.160156 782.34375 C 548.84375 783.835938 540.273438 785.992188 532.050781 788.566406 C 522.019531 791.738281 512.210938 795.707031 502.910156 800.375 C 493.484375 804.945312 484.785156 810.722656 476.59375 817.007812 C 468.339844 823.324219 461.390625 830.910156 454.976562 838.878906 L 453.898438 840.210938 L 452.691406 840.847656 C 442.914062 845.925781 433.234375 850.179688 423.234375 854.148438 C 413.265625 858.082031 403.109375 861.605469 392.730469 864.558594 C 382.378906 867.511719 371.808594 870.019531 361.015625 871.511719 C 358.351562 871.957031 355.589844 872.175781 352.890625 872.464844 L 345.019531 873.289062 C 339.972656 873.667969 334.988281 874.496094 329.972656 875.289062 C 310.101562 878.90625 290.675781 885.699219 274.421875 896.875 C 266.359375 902.492188 259.183594 909.222656 253.472656 917 C 250.675781 920.808594 248.296875 924.839844 246.296875 929.125 C 246.296875 929.125 278.421875 907.824219 322.640625 914.046875 C 366.890625 920.238281 427.519531 918.207031 452.3125 910.9375 C 452.3125 910.9375 395.648438 945.695312 345.082031 939.855469 L 320.988281 944.457031 C 317.464844 945.125 313.308594 946.171875 309.496094 947.441406 C 305.625 948.710938 301.847656 950.203125 298.101562 951.820312 C 290.675781 955.089844 283.59375 959.1875 277.121094 963.980469 C 273.785156 966.296875 270.867188 969.027344 267.820312 971.660156 C 266.390625 973.058594 265.027344 974.550781 263.628906 975.976562 L 261.597656 978.167969 L 259.722656 980.515625 C 258.453125 982.007812 257.25 983.53125 256.136719 985.152344 C 267.027344 981.53125 278.007812 978.359375 289.40625 975.914062 C 298.230469 974.105469 307.246094 972.675781 316.863281 972.738281 C 321.65625 972.804688 326.609375 973.183594 331.8125 974.867188 C 334.386719 975.628906 337.113281 976.992188 339.589844 978.644531 C 341.273438 979.722656 342.890625 980.960938 344.667969 981.945312 C 358.351562 990.421875 374.539062 994.136719 391.171875 994.898438 C 407.871094 995.628906 424.886719 993.847656 441.773438 991.152344 L 444.882812 990.644531 C 460.246094 996.355469 481.230469 993.882812 481.230469 993.882812 C 451.582031 986.328125 438.503906 953.917969 438.503906 953.917969 C 438.503906 953.917969 481.894531 987.691406 521.003906 966.296875 C 560.113281 944.964844 611.378906 947.695312 611.378906 947.695312 C 587.285156 953.21875 562.300781 971.820312 562.300781 971.820312 C 590.363281 961.503906 631.375 963.535156 631.375 963.535156 C 579.03125 983.53125 552.523438 1014.007812 552.523438 1014.007812 L 542.96875 1026.355469 C 542.242188 1027.308594 541.066406 1029.117188 540.175781 1030.609375 C 539.257812 1032.195312 538.335938 1033.816406 537.542969 1035.496094 C 535.828125 1038.863281 534.398438 1042.386719 533.035156 1046.003906 C 530.398438 1053.210938 528.464844 1060.734375 526.972656 1068.351562 C 525.542969 1076 524.71875 1083.808594 524.273438 1091.621094 C 524.050781 1094.539062 524.050781 1097.460938 524.019531 1100.410156 L 541.128906 1085.492188 L 553.03125 1075.144531 L 552.777344 1091.015625 C 552.714844 1097.269531 553.03125 1104.125 553.636719 1110.664062 C 554.238281 1117.300781 555.128906 1123.871094 556.300781 1130.347656 C 557.476562 1136.851562 559.097656 1143.234375 560.9375 1149.488281 C 561.761719 1152.152344 562.652344 1154.757812 563.601562 1157.328125 C 612.519531 1068.605469 695.117188 1051.621094 712.636719 1048.988281 C 696.195312 1050.382812 669.4375 1042.734375 669.4375 1042.734375 C 752.347656 1028.957031 853.609375 968.011719 853.609375 968.011719 L 858.148438 978.929688 C 859.769531 982.835938 862.054688 987.308594 864.46875 991.277344 C 866.847656 995.375 869.546875 999.277344 872.433594 1002.992188 C 875.292969 1006.738281 878.433594 1010.261719 881.765625 1013.53125 C 882.148438 1013.910156 882.527344 1014.195312 882.878906 1014.578125 C 881.925781 1012.738281 854.46875 959.121094 902.464844 905.632812 C 902.464844 905.632812 899.289062 922.140625 897.925781 933.15625 C 897.925781 933.15625 909.605469 917.316406 944.046875 918.015625 C 978.519531 918.679688 1015.183594 915.824219 1070.195312 888.683594 C 1067.910156 895.191406 1064.101562 901 1059.339844 905.953125 C 1070.195312 908.714844 1089.398438 911.984375 1110.035156 907.507812 C 1119.714844 905.445312 1130.855469 905.347656 1142.632812 905.253906 C 1171.519531 905.03125 1203.898438 904.808594 1229.324219 875.921875 C 1229.453125 876.082031 1178.664062 878.238281 1144.09375 860.304688 Z M 695.085938 940.773438 C 627.914062 924.839844 600.363281 910.585938 600.363281 910.585938 C 643.089844 918.871094 703.71875 899.921875 703.71875 899.921875 C 678.230469 895.476562 634.929688 898.492188 634.929688 898.492188 C 690.101562 867.765625 809.167969 856.179688 809.167969 856.179688 C 794.695312 865.160156 774.03125 890.652344 774.03125 890.652344 C 809.167969 878.9375 843.613281 856.179688 843.613281 856.179688 C 800.851562 921.601562 695.085938 940.773438 695.085938 940.773438 Z M 695.085938 940.773438 " fill-opacity="1" fill-rule="nonzero"/><path fill="#545454" d="M 1342.964844 680.542969 C 1314.683594 673.273438 1286.589844 665.65625 1258.59375 657.59375 C 1202.597656 641.5 1147.015625 624.484375 1091.558594 606.675781 L 1089.273438 605.945312 L 1087.875 603.882812 C 1084.097656 598.328125 1078.101562 593.566406 1071.65625 589.472656 C 1065.148438 585.375 1057.941406 581.980469 1050.578125 579.027344 C 1043.148438 576.074219 1035.53125 573.472656 1027.753906 571.25 C 1020.042969 569.058594 1012.011719 567.058594 1004.296875 565.566406 L 1000.457031 564.839844 L 904.113281 456.625 C 856.371094 452.371094 736.699219 488.589844 733.175781 489.636719 C 761.871094 466.878906 837.390625 429.070312 837.390625 429.070312 C 815.773438 431.738281 758.03125 450.371094 755.777344 451.070312 C 834.628906 392.503906 904.113281 358.761719 904.113281 358.761719 L 810.121094 251.878906 L 806.28125 246.167969 L 809.964844 242.707031 L 849.832031 205.882812 L 824.121094 246.484375 C 824.121094 246.484375 906.8125 228.804688 938.554688 116.71875 C 896.589844 130.875 737.144531 184.042969 676.324219 196.742188 C 668.800781 224.261719 628.074219 371.488281 617.664062 391.042969 C 606.425781 412.121094 506.75 531.855469 502.496094 536.9375 L 501.417969 538.269531 C 548.777344 537.984375 626.167969 517.414062 631.722656 515.984375 C 627.027344 517.921875 575.539062 538.96875 532.144531 547.539062 C 486.6875 556.488281 455.296875 557.472656 455.296875 557.472656 L 462.34375 603.945312 L 455.992188 605.4375 C 455.007812 605.691406 355.492188 629.023438 296.355469 658.609375 C 244.328125 684.636719 104.847656 743.964844 67.105469 759.933594 C 81.515625 773.234375 118.878906 801.484375 180.808594 806.46875 C 260.804688 812.914062 350.765625 850.179688 365.589844 856.496094 C 373.398438 855.132812 381.140625 853.226562 388.855469 851.035156 C 408.09375 845.480469 427.203125 837.894531 444.945312 828.910156 C 451.804688 820.46875 459.261719 812.5 467.832031 805.960938 C 469.390625 804.753906 470.945312 803.644531 472.53125 802.5 C 461.613281 795.992188 409.933594 766.472656 368.222656 765.679688 C 321.371094 764.789062 258.265625 751.109375 258.265625 751.109375 C 234.425781 754.09375 210.554688 756.410156 186.585938 757.457031 C 233.410156 747.078125 280.324219 737.902344 326.417969 726.507812 C 337.90625 723.585938 349.335938 720.570312 360.574219 717.144531 C 371.746094 713.617188 382.953125 709.839844 392.761719 704.699219 C 394 704.097656 395.203125 703.460938 396.285156 702.730469 C 397.457031 702.03125 398.441406 701.460938 399.808594 700.539062 C 402.410156 698.859375 404.980469 697.175781 407.617188 695.527344 L 415.617188 690.828125 L 423.773438 686.511719 C 434.757812 680.957031 446.089844 676.160156 457.707031 672.195312 C 480.910156 664.132812 505.035156 659.085938 529.351562 656.511719 C 541.542969 655.304688 553.828125 654.832031 566.078125 655.019531 L 584.269531 655.878906 L 602.203125 656.988281 C 650.007812 660.195312 697.6875 663.84375 745.367188 667.558594 C 840.785156 674.734375 936.144531 681.84375 1031.46875 689.78125 C 1126.761719 698.222656 1222.152344 705.300781 1316.9375 719.394531 C 1300.050781 719.175781 1283.160156 718.699219 1266.304688 718.0625 L 1267.195312 718.160156 C 1267.195312 718.160156 1216.976562 750.726562 1177.710938 752.125 C 1148.15625 753.171875 1097.972656 765.679688 1074.894531 771.804688 C 1079.589844 772.535156 1084.289062 773.203125 1089.050781 773.929688 C 1092.035156 774.375 1095.050781 774.820312 1098.003906 775.265625 C 1120.953125 778.726562 1140.476562 786.820312 1156.15625 796.785156 C 1179.234375 789.644531 1202.28125 782.882812 1225.515625 776.503906 C 1249.832031 769.835938 1274.242188 763.550781 1299 758.25 C 1305.382812 756.980469 1310.90625 755.457031 1316.777344 753.996094 C 1322.523438 752.09375 1328.300781 750.378906 1333.886719 747.933594 C 1345.125 743.425781 1356.074219 737.902344 1366.550781 731.554688 C 1383.4375 721.492188 1399.722656 709.585938 1414.515625 696.542969 C 1390.296875 692.289062 1366.582031 686.542969 1342.964844 680.542969 Z M 863.324219 592.136719 C 845.070312 591.183594 826.882812 589.597656 808.628906 588.011719 C 790.441406 586.167969 772.21875 584.136719 754.0625 581.503906 C 745.046875 580.234375 735.746094 578.328125 726.984375 577.089844 C 722.605469 576.488281 718.257812 575.664062 713.8125 575.25 L 700.511719 574.011719 C 682.671875 572.679688 664.675781 572.933594 646.644531 573.597656 C 628.613281 574.457031 610.550781 575.980469 592.519531 578.203125 C 574.460938 580.265625 556.492188 583.058594 538.460938 586.167969 C 555.730469 580.042969 573.476562 575.441406 591.378906 571.410156 C 609.3125 567.601562 627.472656 564.457031 645.820312 562.679688 C 664.167969 560.710938 682.671875 560.140625 701.273438 560.710938 L 715.210938 561.726562 C 719.84375 562.078125 724.480469 562.933594 729.113281 563.472656 C 738.445312 564.710938 747.046875 566.394531 756.09375 567.566406 C 773.964844 570.394531 792.058594 572.488281 810.058594 574.742188 C 828.089844 577.058594 846.183594 578.898438 864.246094 581.152344 C 900.433594 585.3125 936.683594 589.4375 972.902344 594.421875 C 936.367188 595.34375 899.828125 594.265625 863.324219 592.136719 Z M 577.570312 1013.277344 C 618.835938 974.707031 735.398438 951.28125 792.566406 925.570312 C 849.738281 899.855469 860.878906 838.308594 860.878906 838.308594 C 776.949219 837.609375 672.707031 864.496094 638.929688 877.574219 C 605.1875 890.652344 562.269531 904.429688 562.269531 904.429688 L 583.125 931.980469 C 536.273438 934.742188 543.859375 945.058594 500.464844 952.644531 C 466.945312 958.488281 448.214844 939.15625 441.421875 930.046875 C 471.453125 915.984375 479.101562 894.777344 479.101562 894.777344 C 395.046875 909.921875 363.367188 892.015625 322.574219 894.777344 C 281.785156 897.539062 246.234375 929.15625 246.234375 929.15625 C 299.941406 922.902344 345.050781 939.886719 345.050781 939.886719 C 380.09375 944.425781 406.28125 941.789062 425.773438 935.949219 C 424.3125 950.679688 427.933594 963.980469 432.121094 973.820312 C 379.746094 978.582031 349.019531 961.535156 322.609375 960.867188 C 294.894531 960.167969 256.105469 985.152344 256.105469 985.152344 L 322.609375 981.851562 L 348.953125 993.214844 L 411.648438 1002.863281 L 455.007812 999.246094 L 452.089844 994.167969 L 528.78125 1016.640625 C 528.78125 1016.640625 525.320312 1047.652344 524.652344 1048.605469 C 523.957031 1049.589844 524.113281 1100.476562 524.113281 1100.476562 C 536.652344 1043.78125 630.042969 993.214844 630.042969 993.214844 C 610.011719 999.46875 577.570312 1013.277344 577.570312 1013.277344 Z M 972.933594 903.730469 C 949.378906 902.363281 917.953125 907.191406 917.953125 907.191406 L 917.953125 867.921875 C 866.277344 906.492188 860.878906 958.867188 860.878906 958.867188 L 850.4375 942.203125 C 800.15625 1003.402344 601.632812 1046.351562 601.632812 1046.351562 L 639.628906 1054.605469 C 583.125 1088.347656 563.667969 1157.488281 563.667969 1157.488281 L 608.648438 1113.839844 L 716.796875 1061.496094 L 849.070312 984.328125 L 889.035156 1025.65625 C 889.035156 1025.65625 889.734375 987.753906 889.035156 985.023438 C 888.335938 982.261719 912.460938 940.773438 912.460938 940.773438 L 1006.167969 925.570312 L 1059.464844 906.144531 C 1073.179688 895.605469 1077.8125 867.921875 1077.8125 867.921875 C 1058.449219 887.953125 996.519531 905.09375 972.933594 903.730469 Z M 1074.480469 782.46875 C 1113.875 798.308594 1110.859375 824.148438 1110.859375 824.148438 C 1066.070312 827.230469 1037.847656 856.558594 1037.847656 856.558594 C 1070.925781 854.84375 1102.605469 861.734375 1144.09375 876.113281 C 1185.582031 890.492188 1229.453125 876.113281 1229.453125 876.113281 C 1229.453125 876.113281 1165.964844 830.054688 1137.046875 805.230469 C 1108.097656 780.40625 1074.480469 782.46875 1074.480469 782.46875 Z M 808.503906 828.847656 C 873.640625 835.894531 929.667969 790.058594 929.667969 790.058594 L 910.082031 769.710938 L 944.175781 765.742188 L 943.476562 734.253906 C 970.964844 775.011719 1037.371094 778.535156 1037.371094 778.535156 C 964.996094 741.902344 972.964844 693.621094 972.964844 693.621094 L 893.195312 685.335938 L 909.734375 745.265625 L 877.355469 752.1875 L 888.371094 782.40625 C 875.957031 817.515625 808.503906 828.847656 808.503906 828.847656 Z M 486.722656 838.910156 C 486.722656 838.910156 547.128906 818.878906 579.949219 840.625 L 562.300781 770.058594 C 562.300781 770.058594 476.976562 794.023438 454.976562 838.878906 C 454.976562 838.878906 498.433594 811.101562 532.175781 807.960938 C 532.175781 807.960938 497.734375 827.132812 486.722656 838.910156 Z M 486.722656 838.910156 " fill-opacity="1" fill-rule="nonzero"/><path fill="#d9d9d9" d="M 833.230469 261.65625 L 806.28125 246.199219 C 822.722656 190.773438 880.78125 160.394531 880.78125 160.394531 C 875.957031 174.871094 871.386719 190.011719 871.386719 190.011719 C 905.226562 162.777344 938.554688 116.75 938.554688 116.75 C 927.476562 228.136719 833.230469 261.65625 833.230469 261.65625 Z M 896.84375 337.652344 C 896.84375 337.652344 820.722656 364.285156 717.71875 455.226562 L 740.792969 460.75 C 740.792969 460.75 556.046875 516.777344 527.574219 494.75 L 489.515625 540.679688 L 447.675781 551.695312 L 457.769531 573.886719 C 457.769531 573.886719 527.097656 567.3125 600.363281 543.441406 C 673.625 519.570312 820.722656 524.144531 820.722656 524.144531 C 820.722656 524.144531 781.839844 510.367188 737.84375 507.605469 C 737.84375 507.605469 823.105469 491.066406 860.878906 498.429688 C 898.65625 505.761719 1004.265625 565.566406 1004.265625 565.566406 C 1004.265625 565.566406 900.90625 437.578125 902.527344 434.945312 C 904.175781 432.308594 910.589844 354.222656 910.589844 354.222656 Z M 538.460938 586.203125 C 538.460938 586.203125 641.214844 585.695312 682.703125 601.3125 C 724.191406 616.929688 846.339844 651.5625 932.683594 651.242188 C 932.683594 651.242188 814.183594 626.101562 793.074219 611.40625 C 793.074219 611.40625 980.203125 634.261719 1042.007812 622.421875 C 1042.007812 622.421875 996.710938 613.34375 972.964844 594.453125 C 972.964844 594.453125 883.101562 590.359375 843.613281 586.167969 C 804.121094 581.980469 716.859375 566.363281 709.496094 566.363281 C 702.132812 566.363281 609.058594 565.566406 538.460938 586.203125 Z M 1255.070312 717.9375 C 1248.496094 714.253906 1194.4375 732.632812 1194.4375 732.632812 L 1048.386719 775.234375 L 1099.8125 782.4375 L 1153.996094 805.359375 C 1153.996094 805.359375 1309.222656 762.058594 1341.378906 752.21875 C 1373.535156 742.378906 1427.722656 693.621094 1427.722656 693.621094 L 1414.484375 696.636719 C 1356.234375 726.761719 1316.875 719.460938 1316.875 719.460938 C 1254.71875 715.175781 1261.640625 721.617188 1255.070312 717.9375 Z M 186.554688 757.488281 C 186.554688 757.488281 120.972656 767.042969 67.074219 759.964844 C 67.074219 759.964844 78.40625 794.46875 140.84375 805.355469 C 203.285156 816.246094 246.234375 824.148438 246.234375 824.148438 L 362.667969 861.257812 C 362.667969 861.257812 411.839844 853.003906 414.566406 851.164062 C 417.328125 849.320312 454.945312 829.609375 454.945312 829.609375 L 495.386719 791.453125 L 398.03125 749.203125 L 254.519531 746.917969 Z M 186.554688 757.488281 " fill-opacity="1" fill-rule="nonzero"/><path fill="#545454" d="M 938.554688 116.75 C 938.554688 116.75 803.136719 188.871094 702.542969 209.535156 C 702.542969 209.535156 664.453125 372.789062 652.039062 389.898438 C 639.628906 407.011719 542.621094 488.304688 542.621094 488.304688 L 612.074219 389.902344 L 670.640625 189.1875 Z M 396.21875 615.054688 L 318.132812 640.769531 L 216.171875 685.304688 C 216.171875 685.304688 115.132812 732.601562 107.640625 733.523438 C 100.148438 734.441406 67.074219 759.902344 67.074219 759.902344 C 67.074219 759.902344 173.921875 725.238281 211.570312 714.222656 C 249.21875 703.207031 331.910156 663.6875 374.160156 644.417969 C 416.410156 625.117188 517.449219 594.742188 517.449219 594.742188 L 462.308594 603.945312 Z M 396.21875 615.054688 " fill-opacity="1" fill-rule="nonzero"/><path fill="#000000" d="M 1431.402344 682.035156 C 1415.214844 679.527344 1397.46875 675.941406 1375.757812 670.828125 L 1375.757812 191.566406 L 1295.128906 191.566406 C 1180.851562 191.566406 1066.003906 172.871094 953.699219 136.015625 C 956.492188 118.273438 956.523438 106.910156 956.523438 106.8125 L 956.714844 92.339844 L 942.96875 97.003906 C 942.175781 97.289062 922.113281 104.082031 892.273438 113.921875 C 819.136719 85.070312 776.316406 58.945312 775.902344 58.691406 L 733.144531 32.058594 L 690.511719 58.625 C 681.5625 64.085938 468.691406 191.566406 171.035156 191.566406 L 90.40625 191.566406 L 90.40625 731.269531 C 72.753906 738.792969 59.519531 744.410156 53.867188 746.824219 C 52.027344 747.617188 50.980469 748.0625 50.882812 748.09375 L 38.3125 753.363281 L 46.917969 763.933594 C 47.488281 764.664062 61.359375 781.773438 90.40625 797.800781 L 90.40625 870.621094 L 91.867188 879.253906 C 92.753906 883.796875 114.625 991.976562 202.839844 1117.265625 C 282.578125 1230.527344 435.203125 1383.085938 709.589844 1466.570312 L 733.082031 1473.746094 L 756.539062 1466.570312 C 1030.832031 1383.085938 1183.550781 1230.527344 1263.355469 1117.265625 C 1349.027344 995.59375 1371.949219 890.777344 1374.296875 879.191406 L 1375.695312 871.859375 L 1375.757812 746.21875 C 1398.230469 732.730469 1418.324219 717.398438 1437.117188 699.367188 L 1451.878906 685.175781 Z M 790.980469 146.554688 C 762 132.398438 743.714844 121.605469 738.761719 118.589844 C 738.667969 118.527344 738.574219 118.464844 738.507812 118.429688 L 733.082031 115.003906 L 727.683594 118.429688 C 718.160156 124.304688 490.785156 262.007812 171.03125 262.007812 L 160.8125 262.007812 L 160.8125 701.015625 C 143.226562 708.636719 126.117188 716.03125 110.816406 722.570312 L 110.816406 212.011719 L 171.03125 212.011719 C 475.707031 212.011719 692.101562 81.609375 701.210938 76.054688 L 733.113281 56.214844 L 765.140625 76.117188 C 765.492188 76.339844 799.679688 97.542969 862.246094 123.828125 C 842.785156 130.144531 816.820312 138.523438 790.980469 146.554688 Z M 702.132812 707.113281 L 712.925781 721.207031 C 732.476562 746.824219 755.144531 759.804688 780.316406 759.804688 L 780.855469 759.804688 C 830.53125 759.425781 870.242188 708.351562 874.625 702.507812 L 879.988281 695.238281 L 882.527344 695.429688 C 890.371094 709.621094 895.703125 727.554688 898.589844 738.980469 L 859.292969 742.539062 L 876.65625 780.089844 C 836.277344 833.578125 763.171875 804.054688 760.09375 802.753906 L 757.429688 801.613281 L 754.601562 802.054688 C 731.460938 805.609375 700.609375 815.515625 680.863281 822.402344 C 688.800781 801.832031 697.527344 778.28125 699.335938 770.28125 C 702.417969 756.25 692.003906 722.03125 688.734375 711.875 L 686.988281 706.445312 L 581.316406 680.257812 L 582.554688 674.257812 L 601.125 675.304688 C 648.835938 678.128906 697.273438 681.527344 744.097656 684.796875 L 826.882812 691.113281 Z M 635.535156 756.21875 C 654.960938 756.21875 667.65625 748.441406 675.5625 740.441406 C 679.179688 755.265625 679.910156 763.234375 679.339844 765.835938 C 678.164062 771.167969 671.5 789.769531 661.339844 816.148438 C 659.882812 812.878906 658.863281 810.214844 658.355469 808.882812 L 655.59375 801.007812 L 647.46875 801.992188 C 630.234375 804.023438 604.996094 812.625 589.726562 818.246094 L 565.570312 756.535156 L 574.015625 715.523438 C 592.363281 742.410156 613.027344 756.089844 635.535156 756.21875 Z M 424.375 857.128906 C 435.582031 852.6875 445.042969 848.402344 454.152344 843.671875 L 455.898438 842.75 L 457.421875 840.910156 C 464.882812 831.640625 471.578125 824.878906 478.5 819.578125 C 487.546875 812.660156 495.957031 807.324219 504.273438 803.292969 C 513.542969 798.691406 523.195312 794.785156 532.972656 791.675781 C 540.589844 789.296875 548.015625 787.390625 555.128906 786.027344 L 578.109375 844.8125 L 587.570312 841.003906 L 587.949219 840.878906 C 593.632812 838.65625 621.980469 827.769531 642.230469 823.609375 C 644.769531 829.386719 649.152344 838.273438 654.992188 845.988281 L 659.625 852.050781 L 666.863281 849.257812 C 672.484375 847.132812 722.289062 828.339844 755.046875 822.6875 C 772.792969 829.070312 852.914062 853.097656 896.910156 786.820312 L 900.019531 782.027344 L 889.957031 760.25 L 923.253906 757.234375 L 921.128906 745.933594 C 919.796875 739.363281 915.035156 717.652344 906.082031 697.175781 L 963.632812 701.554688 C 973.28125 774.566406 1033.375 783.328125 1086.480469 791.042969 C 1089.210938 791.453125 1091.941406 791.835938 1094.636719 792.246094 L 1095.398438 792.34375 C 1098.320312 792.753906 1101.273438 793.390625 1103.496094 793.835938 C 1124.667969 799.292969 1135.683594 824.753906 1139.460938 835.546875 C 1103.90625 830.242188 1064.640625 844.242188 1062.925781 844.878906 L 1036.898438 854.304688 L 1064.386719 851.003906 C 1064.832031 850.941406 1109.304688 845.863281 1142.601562 863.066406 C 1169.835938 877.191406 1206.183594 879.128906 1221.863281 879.289062 C 1198.183594 901.792969 1168.820312 901.984375 1142.695312 902.175781 L 1142.222656 902.175781 C 1130.445312 902.269531 1119.335938 902.363281 1109.460938 904.492188 C 1092.796875 908.109375 1076.957031 906.554688 1065.308594 904.144531 C 1068.796875 899.730469 1071.464844 894.9375 1073.273438 889.859375 L 1075.84375 882.527344 L 1068.863281 885.953125 C 1012.296875 913.855469 974.804688 915.539062 944.175781 914.96875 C 922.558594 914.523438 909.445312 920.394531 902.335938 925.21875 C 903.796875 915.949219 905.605469 906.460938 905.636719 906.332031 L 907.796875 895.097656 L 900.144531 903.601562 C 866.148438 941.472656 869.007812 979.691406 874.433594 1000.421875 C 871.765625 996.929688 869.355469 993.339844 867.261719 989.722656 C 864.941406 985.851562 862.722656 981.5 861.164062 977.789062 L 855.199219 963.472656 L 852.054688 965.375 C 851.039062 965.980469 750.347656 1026.164062 668.992188 1039.6875 L 655.121094 1042.003906 L 668.640625 1045.875 C 669.308594 1046.066406 679.339844 1048.925781 690.863281 1050.796875 C 659.023438 1060.066406 602.648438 1084.953125 564.363281 1149.773438 C 564.238281 1149.390625 564.144531 1149.042969 564.015625 1148.660156 C 561.984375 1141.835938 560.492188 1135.679688 559.445312 1129.835938 C 558.300781 1123.617188 557.414062 1117.109375 556.808594 1110.441406 C 556.207031 1103.777344 555.921875 1097.078125 555.984375 1091.144531 L 556.332031 1068.160156 L 527.351562 1093.398438 C 527.382812 1092.890625 527.414062 1092.378906 527.449219 1091.90625 C 527.957031 1083.332031 528.8125 1075.84375 530.113281 1069.050781 C 531.699219 1060.921875 533.636719 1053.75 536.019531 1047.210938 C 537.511719 1043.335938 538.8125 1040.097656 540.429688 1036.957031 C 541.222656 1035.304688 542.144531 1033.6875 542.9375 1032.289062 C 543.761719 1030.863281 544.875 1029.179688 545.476562 1028.386719 L 554.90625 1016.164062 C 555.160156 1015.878906 581.441406 986.070312 632.484375 966.582031 L 646.582031 961.183594 L 631.503906 960.421875 C 630.167969 960.359375 605.410156 959.21875 581.125 963.628906 C 589.949219 958.675781 601.15625 953.34375 612.042969 950.835938 L 634.074219 945.789062 L 611.503906 944.582031 C 609.375 944.457031 558.875 942.042969 519.417969 963.566406 C 482.625 983.691406 440.789062 951.789062 440.375 951.441406 L 431.074219 944.234375 L 435.488281 955.152344 C 435.964844 956.296875 445.359375 979.058594 466.246094 991.214844 C 459.835938 990.960938 452.277344 990.105469 445.898438 987.722656 L 445.105469 987.4375 L 441.199219 988.070312 C 421.296875 991.214844 405.425781 992.390625 391.238281 991.753906 C 373.429688 990.929688 358.285156 986.738281 346.128906 979.183594 C 345.082031 978.582031 344.066406 977.914062 343.082031 977.214844 C 342.480469 976.804688 341.84375 976.359375 341.273438 976.007812 C 338.542969 974.167969 335.464844 972.675781 332.671875 971.851562 C 326.765625 969.976562 321.335938 969.660156 316.765625 969.597656 C 306.386719 969.46875 296.738281 971.183594 288.609375 972.835938 C 281.054688 974.453125 273.277344 976.453125 265.058594 978.960938 L 265.753906 978.199219 C 266.292969 977.628906 266.835938 977.058594 267.375 976.484375 C 268.199219 975.628906 269.023438 974.738281 269.753906 974.042969 L 271.34375 972.644531 C 273.816406 970.453125 276.167969 968.390625 278.832031 966.519531 C 285.085938 961.882812 291.945312 957.914062 299.179688 954.742188 C 303.246094 952.996094 306.894531 951.597656 310.355469 950.457031 C 313.816406 949.3125 317.878906 948.234375 321.433594 947.566406 L 345.050781 943.058594 C 396 948.679688 451.453125 915.09375 453.804688 913.664062 L 474.054688 901.222656 L 451.230469 907.886719 C 428.34375 914.585938 368.605469 917.285156 322.894531 910.902344 C 292.132812 906.585938 267.3125 915.0625 254.296875 921.125 C 254.804688 920.363281 255.3125 919.632812 255.851562 918.902344 C 261.121094 911.699219 267.914062 905.160156 276.039062 899.507812 C 290.738281 889.414062 309.019531 882.335938 330.320312 878.429688 C 335.179688 877.636719 340.195312 876.84375 345.175781 876.460938 L 354.890625 875.476562 C 357.015625 875.257812 359.207031 875.066406 361.300781 874.683594 C 371.078125 873.351562 381.617188 871.035156 393.457031 867.667969 C 403.617188 864.78125 413.964844 861.257812 424.375 857.128906 Z M 292.894531 992.832031 C 302.449219 990.867188 310.039062 989.976562 316.640625 990.039062 C 320.703125 990.070312 324.003906 990.515625 326.605469 991.375 C 327.84375 991.722656 328.734375 992.230469 329.71875 992.867188 C 330.386719 993.308594 331.050781 993.722656 331.6875 994.167969 C 333.019531 995.054688 334.320312 995.945312 335.652344 996.707031 C 344.160156 1001.847656 353.144531 1005.691406 362.351562 1008.039062 C 371.015625 1010.292969 380.160156 1011.625 390.347656 1012.164062 C 405.203125 1012.832031 420.632812 1011.816406 440.21875 1008.863281 C 442.722656 1010.640625 445.230469 1012.195312 448.152344 1013.976562 C 452.597656 1016.515625 456.40625 1018.449219 460.152344 1020.132812 C 469.167969 1024.132812 477.484375 1026.988281 485.546875 1028.832031 C 495.671875 1031.179688 504.085938 1032.417969 511.863281 1032.765625 C 514.496094 1033.019531 517.132812 1033.050781 519.734375 1033.050781 C 518.8125 1035.148438 517.894531 1037.464844 516.878906 1040.132812 C 514.019531 1047.84375 511.796875 1056.066406 510.050781 1065.238281 C 508.59375 1072.984375 507.609375 1081.335938 507.035156 1090.792969 C 506.878906 1093.652344 506.847656 1096.476562 506.78125 1099.300781 C 506.75 1100.699219 506.75 1102.0625 506.71875 1103.648438 L 507.765625 1137.550781 L 536.460938 1112.539062 C 537.097656 1119.363281 538.050781 1126.25 539.351562 1133.550781 C 540.492188 1140.027344 542.175781 1146.914062 544.460938 1154.597656 C 546.367188 1161.007812 548.96875 1167.738281 552.367188 1175.136719 L 559.128906 1189.960938 L 569.570312 1177.167969 C 578.171875 1166.597656 587.824219 1155.898438 598.296875 1145.328125 C 609.597656 1133.964844 619.980469 1124.757812 630.074219 1117.171875 C 636.359375 1112.539062 641.691406 1108.855469 647.246094 1105.839844 L 651.5 1103.523438 L 656.292969 1101.492188 C 658.070312 1100.632812 660.292969 1099.839844 662.484375 1099.078125 C 663.660156 1098.664062 664.832031 1098.253906 665.878906 1097.839844 C 669.4375 1096.601562 672.992188 1095.363281 676.546875 1094.125 C 686.703125 1090.601562 697.210938 1086.921875 707.527344 1083.078125 C 719.875 1078.445312 734.476562 1072.859375 748.859375 1066.289062 C 753.652344 1064.222656 758.414062 1061.90625 763.015625 1059.652344 C 765.046875 1058.667969 767.109375 1057.652344 769.269531 1056.605469 C 771.171875 1055.589844 773.109375 1054.574219 775.046875 1053.589844 C 779.679688 1051.175781 784.503906 1048.667969 789.011719 1045.90625 C 801.519531 1038.894531 813.867188 1030.542969 826.753906 1020.449219 C 834.40625 1014.417969 841.960938 1007.433594 849.292969 999.625 C 849.390625 999.816406 849.515625 999.976562 849.609375 1000.164062 C 852.277344 1004.738281 855.355469 1009.277344 858.753906 1013.625 C 861.992188 1017.910156 865.671875 1022.035156 869.578125 1025.910156 C 873.640625 1030.035156 878.085938 1033.527344 882.050781 1036.480469 L 896.082031 1047.210938 L 898.464844 1029.558594 C 900.589844 1013.816406 904.433594 990.609375 913.320312 970.707031 C 915.511719 965.851562 917.730469 961.882812 920.113281 958.582031 C 922.746094 954.898438 925.605469 952.074219 928.589844 950.328125 C 929.128906 949.949219 929.730469 949.664062 930.554688 949.34375 L 931 949.15625 C 931.351562 948.996094 931.828125 948.867188 932.335938 948.742188 C 932.777344 948.613281 933.253906 948.488281 933.476562 948.390625 C 934.082031 948.234375 934.714844 948.042969 935.316406 947.851562 C 935.859375 947.695312 936.398438 947.535156 936.714844 947.441406 L 940.523438 946.679688 C 942.460938 946.234375 944.492188 945.917969 946.652344 945.597656 L 947.855469 945.410156 C 949.730469 945.089844 951.699219 944.835938 953.632812 944.582031 L 962.871094 943.441406 C 981.820312 941.15625 1001.40625 938.804688 1020.261719 932.265625 C 1028.675781 929.503906 1037.339844 925.441406 1046.007812 920.140625 C 1051.59375 922.078125 1068.070312 927.125 1088.636719 927.125 C 1097.242188 927.125 1105.652344 926.234375 1113.652344 924.523438 C 1121.808594 922.777344 1132.476562 922.710938 1142.761719 922.648438 C 1161.078125 922.523438 1181.710938 922.363281 1201.992188 915.09375 C 1202.3125 916.203125 1202.535156 917.285156 1202.722656 918.363281 C 1203.453125 922.585938 1203.582031 926.808594 1203.074219 930.808594 C 1203.011719 931.21875 1202.945312 931.632812 1202.914062 932.042969 C 1202.851562 932.648438 1202.757812 933.28125 1202.597656 934.011719 L 1202.3125 935.378906 C 1202.25 935.601562 1202.183594 935.855469 1202.089844 936.296875 C 1201.992188 936.457031 1201.929688 936.648438 1201.835938 936.871094 L 1201.199219 937.917969 C 1201.042969 938.203125 1200.757812 938.550781 1200.46875 938.902344 C 1200.152344 939.3125 1199.804688 939.757812 1199.675781 939.949219 C 1196.945312 943.378906 1193.457031 946.835938 1189.867188 950.328125 C 1182.535156 957.3125 1174.472656 964.105469 1166.632812 970.675781 C 1158.03125 977.882812 1149.492188 984.769531 1142.285156 990.578125 C 1134.347656 996.960938 1126.382812 1003.308594 1118.382812 1009.6875 C 1093.71875 1029.339844 1068.195312 1049.652344 1043.914062 1071.175781 C 1039.46875 1075.144531 1035.5625 1078.730469 1031.976562 1082.09375 C 1029.34375 1084.570312 1026.707031 1087.207031 1024.167969 1089.777344 C 1022.929688 1091.015625 1021.722656 1092.253906 1020.515625 1093.429688 C 1012.582031 1101.425781 1004.265625 1109.140625 997.949219 1114.980469 C 982.363281 1129.359375 966.109375 1143.390625 950.777344 1156.566406 C 935.476562 1169.613281 919.128906 1183.484375 902.464844 1197.101562 C 895.164062 1203.195312 887.578125 1209.226562 880.242188 1215.035156 L 873.832031 1220.019531 C 867.039062 1225.226562 859.992188 1230.621094 852.625 1235.195312 C 852.625 1235.195312 876.210938 1231.097656 884.402344 1226.433594 C 889.574219 1223.480469 894.082031 1220.71875 898.148438 1218.082031 C 902.589844 1215.320312 907.160156 1212.433594 911.605469 1209.417969 C 929.097656 1197.703125 946.523438 1185.070312 963.316406 1171.898438 C 979.09375 1159.644531 995.1875 1146.28125 1012.484375 1131.074219 C 1020.105469 1124.347656 1028.261719 1117.042969 1036.167969 1109.425781 C 1037.53125 1108.125 1038.832031 1106.855469 1040.132812 1105.617188 C 1042.609375 1103.238281 1044.992188 1100.949219 1047.53125 1098.664062 C 1050.832031 1095.585938 1054.484375 1092.285156 1059.023438 1088.316406 C 1079.082031 1071.082031 1100.320312 1054.128906 1120.859375 1037.78125 C 1132.761719 1028.289062 1145.046875 1018.511719 1157.203125 1008.546875 C 1172.664062 995.847656 1188.660156 982.769531 1203.707031 968.136719 C 1187.265625 998.609375 1156.347656 1046.574219 1110.222656 1081.015625 L 1166.503906 1059.90625 C 1150.441406 1088.445312 1095.304688 1179.863281 1016.644531 1239.097656 C 935.097656 1298.996094 839.675781 1345.976562 732.984375 1378.800781 C 485.417969 1302.679688 348.636719 1166.5 277.4375 1065.621094 C 264.550781 1047.304688 252.421875 1028.257812 241.375 1008.894531 L 244.550781 1007.65625 C 261.722656 1001.023438 277.945312 996.039062 292.894531 992.832031 Z M 110.816406 807.578125 C 126.464844 814.054688 143.226562 818.722656 160.8125 821.515625 L 160.8125 863.859375 L 161.003906 865.796875 C 161.734375 869.699219 179.984375 962.519531 260.390625 1076.761719 C 333.78125 1181.007812 474.878906 1321.566406 730.066406 1399.242188 L 733.050781 1400.164062 L 736 1399.242188 C 991.21875 1321.566406 1132.285156 1181.007812 1205.707031 1076.761719 C 1284.972656 964.167969 1304.367188 869.796875 1305.160156 865.703125 L 1305.285156 774.660156 C 1310.015625 773.613281 1315 772.34375 1319.855469 771.105469 L 1324.808594 769.613281 C 1329.953125 767.933594 1335.253906 766.21875 1340.234375 764.058594 C 1345.1875 762.089844 1350.140625 759.902344 1355.25 757.394531 L 1355.25 869.699219 L 1354.140625 875.351562 C 1353.25 879.765625 1331.761719 984.484375 1246.5625 1105.585938 C 1168.601562 1216.242188 1019.246094 1365.34375 750.507812 1447.113281 L 732.984375 1452.476562 L 715.433594 1447.113281 C 446.566406 1365.246094 297.339844 1216.210938 219.472656 1105.585938 C 133.511719 983.4375 112.6875 879.796875 111.863281 875.445312 L 110.753906 869.734375 L 110.753906 807.578125 Z M 1319.222656 749.933594 L 1316.015625 750.980469 L 1312.269531 751.933594 C 1307.667969 753.109375 1303.320312 754.21875 1298.335938 755.203125 C 1276.875 759.773438 1254.148438 765.425781 1224.660156 773.488281 C 1202.40625 779.582031 1179.488281 786.28125 1156.570312 793.359375 C 1139.015625 782.46875 1119.460938 775.328125 1098.445312 772.183594 C 1096.859375 771.929688 1095.273438 771.710938 1093.652344 771.457031 L 1090.796875 771.042969 C 1115.621094 764.820312 1153.871094 756.21875 1177.773438 755.363281 C 1215.292969 754.027344 1261.449219 725.554688 1268.113281 721.363281 C 1286.242188 722.03125 1317.347656 716.316406 1317.347656 716.316406 C 1237.957031 704.507812 1156.886719 697.523438 1078.480469 690.765625 C 1062.894531 689.429688 1047.308594 688.066406 1031.691406 686.699219 C 943.539062 679.367188 853.863281 672.636719 767.140625 666.097656 L 745.589844 664.480469 C 697.050781 660.703125 649.5625 657.085938 602.363281 653.910156 L 584.394531 652.765625 L 566.109375 651.910156 C 553.761719 651.71875 541.289062 652.195312 529.003906 653.402344 C 503.417969 656.101562 479.070312 661.433594 456.660156 669.210938 C 444.945312 673.210938 433.390625 678.097656 422.25 683.75 L 413.964844 688.160156 L 405.902344 692.890625 C 403.648438 694.253906 401.457031 695.714844 399.234375 697.144531 L 397.964844 697.96875 C 396.949219 698.636719 396.15625 699.113281 395.332031 699.621094 L 394.410156 700.160156 C 393.617188 700.699219 392.632812 701.238281 391.203125 701.9375 C 381.429688 707.078125 370.191406 710.792969 359.589844 714.125 C 347.714844 717.746094 335.71875 720.855469 325.589844 723.460938 C 295.179688 730.984375 263.851562 737.648438 233.535156 744.09375 C 217.664062 747.457031 201.730469 750.855469 185.824219 754.378906 C 185.824219 754.378906 231.535156 757.679688 258.074219 754.347656 C 264.328125 755.679688 323.75 768.058594 368.128906 768.882812 C 405.109375 769.613281 450.722656 793.707031 466.691406 802.847656 C 466.40625 803.070312 466.152344 803.261719 465.867188 803.484375 C 458.152344 809.390625 450.851562 816.691406 442.882812 826.433594 C 425.234375 835.324219 406.757812 842.59375 387.96875 848.019531 C 379.871094 850.304688 372.667969 852.019531 365.9375 853.226562 C 346.953125 845.164062 259.660156 809.644531 181.03125 803.324219 C 124.464844 798.753906 88.5625 774.25 72.945312 760.917969 C 118.59375 741.554688 247.949219 686.351562 297.753906 661.464844 C 353.429688 633.625 446.058594 611.089844 456.691406 608.546875 L 465.898438 606.390625 L 458.945312 560.488281 C 468.46875 559.949219 496.277344 557.855469 532.75 550.679688 C 576.363281 542.078125 627.28125 521.285156 632.929688 518.9375 C 632.929688 518.9375 550.714844 533.125 508.304688 534.9375 C 526.273438 513.320312 610.074219 412.121094 620.488281 392.566406 C 631.3125 372.28125 673.46875 219.246094 678.894531 199.472656 C 739.652344 186.394531 890.972656 136.082031 933.792969 121.699219 C 907.890625 205.566406 852.183594 233.277344 831.453125 240.898438 L 865.484375 187.125 L 807.804688 240.421875 L 802.121094 245.722656 L 807.457031 253.65625 L 898.972656 357.746094 C 883.480469 365.617188 821.738281 398.058594 753.839844 448.53125 L 738.828125 459.671875 L 757.554688 453.832031 C 767.425781 450.6875 793.742188 442.46875 815.011719 437.007812 C 790.410156 449.957031 750.570312 471.734375 731.175781 487.128906 L 718.351562 497.382812 L 734.253906 492.589844 C 746.730469 488.84375 856.59375 456.308594 902.589844 459.640625 L 998.804688 567.695312 L 1003.691406 568.648438 C 1010.644531 569.980469 1018.453125 571.851562 1026.867188 574.265625 C 1034.421875 576.425781 1041.976562 578.996094 1049.371094 581.949219 C 1057.402344 585.152344 1064.132812 588.488281 1069.941406 592.136719 C 1077.210938 596.738281 1082.195312 601.152344 1085.242188 605.628906 L 1087.273438 608.613281 L 1090.605469 609.691406 C 1147.554688 627.976562 1203.804688 645.117188 1257.734375 660.640625 C 1285.445312 668.640625 1313.855469 676.351562 1342.203125 683.621094 C 1362.933594 688.890625 1385.089844 694.289062 1407.46875 698.539062 C 1394.074219 709.839844 1379.820312 720.0625 1364.964844 728.886719 C 1354.425781 735.234375 1343.601562 740.664062 1332.648438 745.078125 C 1328.269531 746.980469 1323.667969 748.503906 1319.222656 749.933594 Z M 1355.3125 665.84375 C 1354.363281 665.589844 1353.378906 665.371094 1352.425781 665.117188 L 1347.21875 663.8125 C 1333.378906 660.257812 1319.285156 656.511719 1305.351562 652.734375 L 1305.351562 262.007812 L 1295.128906 262.007812 C 1173.773438 262.007812 1052.292969 242.484375 934.015625 203.980469 C 940.617188 189.058594 945.921875 173.0625 949.824219 156.269531 C 1063.433594 193.25 1179.582031 212.011719 1295.128906 212.011719 L 1355.347656 212.011719 L 1355.347656 665.84375 Z M 573.316406 1235.128906 C 590.234375 1241.859375 609.058594 1246.90625 629.214844 1250.113281 C 642.550781 1252.144531 655.660156 1253.160156 668.386719 1253.160156 C 676.355469 1253.160156 684.195312 1252.78125 691.878906 1251.953125 C 713.75 1249.667969 734.382812 1244.242188 753.207031 1235.828125 C 774.09375 1226.527344 793.679688 1215.578125 808.40625 1207.070312 C 824.152344 1197.894531 840.882812 1187.609375 860.941406 1174.691406 C 877.765625 1163.867188 895.003906 1152.375 912.175781 1140.566406 C 949.570312 1114.761719 982.234375 1091.238281 1012.042969 1068.636719 L 1084.417969 1013.816406 L 1001.789062 1051.464844 C 988.804688 1057.367188 974.457031 1063.714844 957.855469 1070.921875 C 943.792969 1077.046875 928.714844 1083.585938 913.667969 1089.9375 C 887.640625 1100.855469 856.691406 1113.710938 824.597656 1126.28125 C 788.503906 1140.34375 760.699219 1150.628906 734.414062 1159.613281 C 698.925781 1171.800781 669.6875 1180.53125 642.421875 1187.070312 L 796.980469 1173.007812 C 768.761719 1193.261719 679.753906 1248.273438 571.03125 1227.480469 L 544.492188 1222.402344 L 569.125 1233.480469 C 569.160156 1233.449219 570.648438 1234.113281 573.316406 1235.128906 Z M 694.355469 943.855469 L 694.988281 944.011719 L 695.65625 943.886719 C 700.035156 943.089844 803.265625 923.726562 846.246094 857.890625 L 854.59375 845.066406 L 841.832031 853.511719 C 841.515625 853.703125 814.503906 871.480469 784.347656 883.445312 C 791.550781 875.351562 802.375 864.082031 810.820312 858.84375 L 822.375 851.671875 L 808.820312 853.003906 C 803.933594 853.480469 688.480469 865.003906 633.34375 895.730469 L 620.933594 902.652344 L 635.121094 901.667969 C 635.46875 901.636719 662.800781 899.792969 686.449219 901.253906 C 665.65625 906.207031 629.089844 912.933594 600.964844 907.507812 L 579.285156 903.316406 L 598.902344 913.441406 C 600.042969 913.984375 627.566406 927.980469 694.355469 943.855469 Z M 362.828125 1096.824219 C 377.175781 1110.539062 393.238281 1124.28125 410.535156 1137.648438 C 427.835938 1150.882812 445.390625 1162.722656 462.722656 1172.914062 C 483.453125 1184.878906 502.179688 1193.609375 520.019531 1199.578125 L 541.222656 1206.6875 L 522.84375 1193.960938 C 505.734375 1182.117188 489.007812 1170.46875 472.183594 1158.375 C 456.3125 1146.566406 439.421875 1133.996094 422.980469 1121.457031 L 374.128906 1083.714844 C 358.636719 1071.652344 341.90625 1058.734375 324.511719 1046.128906 L 306.261719 1032.894531 L 320.164062 1050.636719 C 331.621094 1065.398438 345.210938 1080.097656 362.828125 1096.824219 Z M 864.65625 578.042969 C 856.339844 576.996094 848.023438 576.074219 839.707031 575.121094 C 830.121094 574.042969 820.183594 572.902344 810.472656 571.632812 L 801.519531 570.519531 C 786.726562 568.679688 771.457031 566.804688 756.476562 564.457031 C 751.90625 563.855469 747.554688 563.15625 742.921875 562.425781 C 738.539062 561.726562 734.128906 560.996094 729.492188 560.394531 C 727.8125 560.203125 726.160156 559.949219 724.480469 559.726562 C 721.527344 559.316406 718.480469 558.871094 715.433594 558.648438 L 701.335938 557.632812 C 681.972656 557.0625 663.183594 557.726562 645.46875 559.632812 C 628.773438 561.28125 610.835938 564.140625 590.648438 568.425781 C 569.507812 573.15625 553.636719 580.867188 538.429688 586.265625 C 538.429688 586.265625 576.933594 583.28125 592.871094 581.472656 C 610.867188 579.25 629.027344 577.695312 646.707031 576.867188 C 662.578125 576.265625 681.339844 575.851562 700.164062 577.28125 L 713.496094 578.519531 C 716.289062 578.773438 719.144531 579.21875 721.9375 579.628906 C 723.460938 579.882812 724.988281 580.105469 726.511719 580.328125 C 730.828125 580.933594 735.367188 581.726562 739.777344 582.488281 C 744.316406 583.28125 749.015625 584.074219 753.585938 584.742188 C 769.492188 587.058594 786.378906 589.058594 808.503906 591.28125 C 826.40625 592.835938 844.914062 594.453125 863.132812 595.40625 C 893.574219 597.152344 921.320312 598.042969 947.15625 598.042969 C 955.984375 598.042969 964.523438 594.773438 972.933594 594.550781 C 972.933594 594.550781 903.449219 582.582031 869.386719 578.679688 Z M 864.65625 578.042969 " fill-opacity="1" fill-rule="nonzero"/></svg>