<svg xmlns="http://www.w3.org/2000/svg" xmlns:xlink="http://www.w3.org/1999/xlink" width="2000" zoomAndPan="magnify" viewBox="0 0 1500 749.999995" height="1000" preserveAspectRatio="xMidYMid meet" version="1.0"><defs><g/><clipPath id="1d8e2b80c0"><rect x="0" width="817" y="0" height="333"/></clipPath><clipPath id="61b138606b"><path d="M 0.480469 0.519531 L 295 0.519531 L 295 544.839844 L 0.480469 544.839844 Z M 0.480469 0.519531 " clip-rule="nonzero"/></clipPath><clipPath id="cb0c175903"><rect x="0" width="295" y="0" height="545"/></clipPath><clipPath id="496ddaba2a"><path d="M 1142 0.519531 L 1476 0.519531 L 1476 544.839844 L 1142 544.839844 Z M 1142 0.519531 " clip-rule="nonzero"/></clipPath><clipPath id="c15f57bc6a"><path d="M 0.160156 2 L 325 2 L 325 452 L 0.160156 452 Z M 0.160156 2 " clip-rule="nonzero"/></clipPath><clipPath id="a0e88ba76e"><rect x="0" width="334" y="0" height="545"/></clipPath><clipPath id="f73e6c8604"><rect x="0" width="765" y="0" height="185"/></clipPath><clipPath id="d6abb394c5"><rect x="0" width="1476" y="0" height="545"/></clipPath></defs><g transform="matrix(1, 0, 0, 1, 24, 101)"><g clip-path="url(#d6abb394c5)"><g transform="matrix(1, 0, 0, 1, 323, 7)"><g clip-path="url(#1d8e2b80c0)"><g fill="#ffffff" fill-opacity="1"><g transform="translate(7.785184, 275.38979)"><g><path d="M 161.296875 -22.4375 C 161.296875 -22.4375 161.46875 -22.203125 161.8125 -21.734375 C 162.164062 -21.265625 162.226562 -20.566406 162 -19.640625 C 161.757812 -19.398438 161.460938 -19.160156 161.109375 -18.921875 C 160.765625 -18.691406 160.59375 -18.578125 160.59375 -18.578125 C 155.445312 -17.878906 151.003906 -15.894531 147.265625 -12.625 C 143.523438 -9.351562 141.421875 -5.492188 140.953125 -1.046875 C 140.722656 -1.046875 140.375 -0.8125 139.90625 -0.34375 C 139.4375 0.113281 139.320312 0.226562 139.5625 0 L 18.9375 0 C 18.9375 0 18.816406 0 18.578125 0 C 18.347656 0 18.113281 -0.113281 17.875 -0.34375 C 17.644531 -0.582031 17.53125 -0.757812 17.53125 -0.875 C 17.53125 -0.988281 17.53125 -1.046875 17.53125 -1.046875 C 17.300781 -5.492188 15.3125 -9.351562 11.5625 -12.625 C 7.820312 -15.894531 3.261719 -17.878906 -2.109375 -18.578125 C -2.109375 -18.578125 -2.28125 -18.691406 -2.625 -18.921875 C -2.976562 -19.160156 -3.269531 -19.398438 -3.5 -19.640625 C -3.738281 -20.566406 -3.738281 -21.265625 -3.5 -21.734375 C -3.269531 -22.203125 -3.15625 -22.4375 -3.15625 -22.4375 C 0.113281 -25.707031 1.75 -29.679688 1.75 -34.359375 L 1.75 -239.140625 C 1.75 -243.816406 0.113281 -247.789062 -3.15625 -251.0625 C -3.15625 -251.0625 -3.269531 -251.296875 -3.5 -251.765625 C -3.738281 -252.234375 -3.738281 -252.929688 -3.5 -253.859375 C -3.269531 -254.328125 -2.976562 -254.617188 -2.625 -254.734375 C -2.28125 -254.859375 -2.109375 -254.921875 -2.109375 -254.921875 C 3.261719 -255.617188 7.820312 -257.660156 11.5625 -261.046875 C 15.3125 -264.441406 17.300781 -268.242188 17.53125 -272.453125 C 17.53125 -272.453125 17.53125 -272.566406 17.53125 -272.796875 C 17.53125 -273.035156 17.644531 -273.269531 17.875 -273.5 L 139.90625 -273.5 C 140.132812 -273.269531 140.25 -273.035156 140.25 -272.796875 C 140.25 -272.566406 140.25 -272.453125 140.25 -272.453125 C 140.71875 -268.242188 142.820312 -264.441406 146.5625 -261.046875 C 150.300781 -257.660156 154.742188 -255.617188 159.890625 -254.921875 C 159.890625 -254.921875 160.0625 -254.859375 160.40625 -254.734375 C 160.757812 -254.617188 161.054688 -254.328125 161.296875 -253.859375 C 161.523438 -252.929688 161.519531 -252.234375 161.28125 -251.765625 C 161.050781 -251.296875 160.9375 -251.0625 160.9375 -251.0625 C 157.4375 -247.550781 155.6875 -243.109375 155.6875 -237.734375 L 155.6875 -32.953125 C 156.382812 -28.984375 158.253906 -25.476562 161.296875 -22.4375 Z M 79.25 -29.109375 C 84.625 -29.109375 89.238281 -30.914062 93.09375 -34.53125 C 96.945312 -38.15625 98.992188 -41.140625 99.234375 -43.484375 L 98.875 -231.765625 C 98.875 -234.109375 96.945312 -237.03125 93.09375 -240.53125 C 89.238281 -244.039062 84.625 -245.796875 79.25 -245.796875 C 73.875 -245.796875 69.3125 -244.039062 65.5625 -240.53125 C 61.820312 -237.03125 59.953125 -233.992188 59.953125 -231.421875 L 59.953125 -43.484375 C 59.953125 -41.140625 61.820312 -38.15625 65.5625 -34.53125 C 69.3125 -30.914062 73.875 -29.109375 79.25 -29.109375 Z M 79.25 -152.53125 C 83.457031 -152.53125 87.140625 -151.007812 90.296875 -147.96875 C 93.453125 -144.925781 95.03125 -141.300781 95.03125 -137.09375 C 95.03125 -132.65625 93.453125 -128.914062 90.296875 -125.875 C 87.140625 -122.84375 83.457031 -121.328125 79.25 -121.328125 C 74.800781 -121.328125 71.054688 -122.84375 68.015625 -125.875 C 64.984375 -128.914062 63.46875 -132.65625 63.46875 -137.09375 C 63.46875 -141.300781 64.984375 -144.925781 68.015625 -147.96875 C 71.054688 -151.007812 74.800781 -152.53125 79.25 -152.53125 Z M 79.25 -152.53125 "/></g></g></g><g fill="#ffffff" fill-opacity="1"><g transform="translate(180.302056, 275.38979)"><g><path d="M 222.3125 -270.34375 L 212.84375 -261.234375 L 212.84375 -245.453125 L 204.078125 -245.453125 L 204.078125 -28.75 L 212.84375 -28.75 L 212.84375 -12.265625 L 222.3125 -3.15625 L 222.3125 0 L 129.390625 0 L 129.390625 -3.15625 L 138.859375 -12.265625 L 138.859375 -28.75 L 147.96875 -28.75 L 147.96875 -142.359375 L 114.3125 -56.109375 L 108.703125 -56.109375 L 74.6875 -141.3125 L 74.6875 -28.75 L 83.453125 -28.75 L 83.453125 -12.265625 L 92.921875 -3.15625 L 92.921875 0 L 0 0 L 0 -3.15625 L 9.46875 -12.265625 L 9.46875 -28.75 L 18.578125 -28.75 L 18.578125 -245.453125 L 9.46875 -245.796875 L 9.46875 -261.234375 L 0 -270.34375 L 0 -273.5 L 92.921875 -273.5 L 92.921875 -270.34375 L 83.453125 -261.234375 L 83.453125 -245.453125 L 74.6875 -245.453125 L 111.15625 -137.796875 L 147.96875 -245.453125 L 138.859375 -245.796875 L 138.859375 -261.234375 L 129.390625 -270.34375 L 129.390625 -273.5 L 222.3125 -273.5 Z M 222.3125 -270.34375 "/></g></g></g><g fill="#ffffff" fill-opacity="1"><g transform="translate(414.882964, 275.38979)"><g><path d="M 175.3125 -128.328125 C 176.25 -127.398438 176.425781 -126.175781 175.84375 -124.65625 C 175.257812 -123.132812 174.96875 -122.375 174.96875 -122.375 C 171.695312 -119.570312 169.710938 -116.414062 169.015625 -112.90625 C 168.773438 -111.96875 168.597656 -108.8125 168.484375 -103.4375 C 168.367188 -98.0625 168.191406 -91.75 167.953125 -84.5 C 167.722656 -77.257812 167.546875 -70.128906 167.421875 -63.109375 C 167.304688 -56.097656 167.25 -50.253906 167.25 -45.578125 C 167.25 -40.910156 167.25 -38.578125 167.25 -38.578125 C 167.25 -32.722656 169.351562 -27.925781 173.5625 -24.1875 L 173.5625 -23.5 C 173.5625 -22.789062 173.617188 -21.910156 173.734375 -20.859375 C 173.859375 -19.804688 173.800781 -19.046875 173.5625 -18.578125 L 173.5625 -17.875 C 173.332031 -17.414062 172.984375 -17.1875 172.515625 -17.1875 C 172.046875 -17.1875 171.8125 -17.1875 171.8125 -17.1875 C 167.375 -16.945312 163.398438 -15.597656 159.890625 -13.140625 C 156.378906 -10.691406 154.039062 -7.710938 152.875 -4.203125 C 152.40625 -2.804688 152.171875 -1.753906 152.171875 -1.046875 L 150.78125 0 L 0 0 L 0 -3.15625 L 9.46875 -12.265625 L 9.46875 -29.109375 L 18.234375 -29.109375 L 18.234375 -245.453125 L 9.46875 -245.453125 L 9.46875 -261.234375 L 0 -270.34375 L 0 -273.5 L 144.46875 -273.84375 L 146.21875 -272.796875 C 146.6875 -268.359375 148.789062 -264.5625 152.53125 -261.40625 C 156.269531 -258.25 160.710938 -256.4375 165.859375 -255.96875 C 165.859375 -255.96875 166.148438 -255.90625 166.734375 -255.78125 C 167.316406 -255.664062 167.609375 -255.378906 167.609375 -254.921875 C 167.835938 -254.210938 167.953125 -253.390625 167.953125 -252.453125 C 167.953125 -251.523438 167.953125 -250.707031 167.953125 -250 C 167.953125 -249.769531 167.894531 -249.597656 167.78125 -249.484375 C 167.664062 -249.367188 167.609375 -249.3125 167.609375 -249.3125 C 163.628906 -246.03125 161.640625 -241.234375 161.640625 -234.921875 L 161.640625 -194.25 C 162.347656 -189.570312 164.21875 -185.953125 167.25 -183.390625 L 167.609375 -182.6875 C 167.609375 -182.6875 167.664062 -181.984375 167.78125 -180.578125 C 167.894531 -179.171875 167.835938 -178.238281 167.609375 -177.78125 C 167.367188 -177.539062 166.957031 -177.300781 166.375 -177.0625 C 165.789062 -176.832031 165.5 -176.71875 165.5 -176.71875 L 135.34375 -157.09375 C 136.507812 -155.914062 138.4375 -153.863281 141.125 -150.9375 C 143.820312 -148.019531 146.804688 -145.097656 150.078125 -142.171875 C 153.347656 -139.253906 156.035156 -136.976562 158.140625 -135.34375 C 161.410156 -133.476562 164.269531 -131.898438 166.71875 -130.609375 C 169.175781 -129.328125 171.222656 -128.800781 172.859375 -129.03125 C 173.328125 -129.03125 173.738281 -129.03125 174.09375 -129.03125 C 174.445312 -129.03125 174.851562 -128.796875 175.3125 -128.328125 Z M 77.84375 -245.453125 L 77.84375 -157.78125 L 103.4375 -172.859375 L 103.4375 -237.734375 C 103.4375 -238.898438 102.675781 -240.476562 101.15625 -242.46875 C 99.632812 -244.457031 97.941406 -245.453125 96.078125 -245.453125 Z M 101.6875 -28.75 C 104.488281 -28.75 106.820312 -29.625 108.6875 -31.375 C 110.5625 -33.132812 111.5 -35.066406 111.5 -37.171875 L 111.5 -123.078125 L 98.875 -138.15625 L 77.84375 -124.828125 L 77.84375 -28.75 Z M 101.6875 -28.75 "/></g></g></g><g fill="#ffffff" fill-opacity="1"><g transform="translate(601.425575, 275.38979)"><g><path d="M 196.015625 -12.265625 L 205.46875 -3.15625 L 205.46875 0 L 117.46875 0 L 117.46875 -2.8125 L 127.28125 -12.625 L 127.28125 -28.75 L 135.703125 -28.75 L 125.171875 -79.953125 C 122.609375 -77.378906 120.210938 -73.578125 117.984375 -68.546875 C 115.765625 -63.523438 113.78125 -58.382812 112.03125 -53.125 C 110.28125 -47.863281 108.878906 -43.300781 107.828125 -39.4375 C 106.773438 -35.582031 106.25 -33.65625 106.25 -33.65625 C 105.78125 -32.488281 104.960938 -31.90625 103.796875 -31.90625 C 102.390625 -31.90625 101.6875 -32.609375 101.6875 -34.015625 C 101.445312 -38.453125 100.097656 -43.941406 97.640625 -50.484375 C 95.191406 -57.035156 92.503906 -63.113281 89.578125 -68.71875 C 86.660156 -74.332031 84.148438 -78.078125 82.046875 -79.953125 L 72.578125 -28.75 L 81.703125 -28.75 L 81.703125 -12.265625 L 91.515625 -3.15625 L 91.515625 0 L 0 0 L 0 -3.15625 L 9.8125 -12.265625 L 9.8125 -28.75 L 18.578125 -28.75 L 61.015625 -245.453125 L 51.890625 -245.453125 L 51.890625 -261.234375 L 42.421875 -270.34375 L 42.421875 -273.84375 L 162.703125 -273.84375 L 162.703125 -270.34375 L 153.234375 -261.234375 L 153.234375 -245.796875 L 144.46875 -245.453125 L 187.234375 -28.75 L 196.015625 -28.75 Z M 103.796875 -96.078125 C 104.492188 -97.472656 105.894531 -99.222656 108 -101.328125 C 110.101562 -103.429688 112.265625 -105.535156 114.484375 -107.640625 C 116.703125 -109.742188 118.394531 -111.265625 119.5625 -112.203125 L 103.796875 -233.53125 L 89.765625 -111.5 C 91.628906 -109.863281 94.195312 -107.234375 97.46875 -103.609375 C 100.75 -99.984375 102.859375 -97.472656 103.796875 -96.078125 Z M 103.796875 -96.078125 "/></g></g></g></g></g><g clip-path="url(#61b138606b)"><g transform="matrix(1, 0, 0, 1, -0.000000000000007105, -0.000000000000071054)"><g clip-path="url(#cb0c175903)"><g fill="#ffffff" fill-opacity="1"><g transform="translate(10.591803, 451.472738)"><g><path d="M 264.71875 -36.828125 C 264.71875 -36.828125 265.003906 -36.441406 265.578125 -35.671875 C 266.160156 -34.910156 266.257812 -33.765625 265.875 -32.234375 C 265.488281 -31.847656 265.007812 -31.460938 264.4375 -31.078125 C 263.863281 -30.691406 263.578125 -30.5 263.578125 -30.5 C 255.128906 -29.351562 247.835938 -26.09375 241.703125 -20.71875 C 235.566406 -15.34375 232.113281 -9.007812 231.34375 -1.71875 C 230.957031 -1.71875 230.378906 -1.332031 229.609375 -0.5625 C 228.847656 0.195312 228.660156 0.382812 229.046875 0 L 31.078125 0 C 31.078125 0 30.882812 0 30.5 0 C 30.113281 0 29.726562 -0.191406 29.34375 -0.578125 C 28.96875 -0.960938 28.78125 -1.25 28.78125 -1.4375 C 28.78125 -1.625 28.78125 -1.71875 28.78125 -1.71875 C 28.394531 -9.007812 25.128906 -15.34375 18.984375 -20.71875 C 12.847656 -26.09375 5.367188 -29.351562 -3.453125 -30.5 C -3.453125 -30.5 -3.738281 -30.691406 -4.3125 -31.078125 C -4.882812 -31.460938 -5.363281 -31.847656 -5.75 -32.234375 C -6.132812 -33.765625 -6.132812 -34.910156 -5.75 -35.671875 C -5.363281 -36.441406 -5.171875 -36.828125 -5.171875 -36.828125 C 0.191406 -42.203125 2.875 -48.722656 2.875 -56.390625 L 2.875 -392.484375 C 2.875 -400.148438 0.191406 -406.671875 -5.171875 -412.046875 C -5.171875 -412.046875 -5.363281 -412.425781 -5.75 -413.1875 C -6.132812 -413.957031 -6.132812 -415.113281 -5.75 -416.65625 C -5.363281 -417.414062 -4.882812 -417.890625 -4.3125 -418.078125 C -3.738281 -418.273438 -3.453125 -418.375 -3.453125 -418.375 C 5.367188 -419.53125 12.847656 -422.890625 18.984375 -428.453125 C 25.128906 -434.015625 28.394531 -440.25 28.78125 -447.15625 C 28.78125 -447.15625 28.78125 -447.34375 28.78125 -447.71875 C 28.78125 -448.101562 28.96875 -448.488281 29.34375 -448.875 L 229.625 -448.875 C 230 -448.488281 230.1875 -448.101562 230.1875 -447.71875 C 230.1875 -447.34375 230.1875 -447.15625 230.1875 -447.15625 C 230.957031 -440.25 234.410156 -434.015625 240.546875 -428.453125 C 246.691406 -422.890625 253.984375 -419.53125 262.421875 -418.375 C 262.421875 -418.375 262.707031 -418.273438 263.28125 -418.078125 C 263.851562 -417.890625 264.332031 -417.414062 264.71875 -416.65625 C 265.101562 -415.113281 265.101562 -413.957031 264.71875 -413.1875 C 264.332031 -412.425781 264.140625 -412.046875 264.140625 -412.046875 C 258.390625 -406.296875 255.515625 -399.003906 255.515625 -390.171875 L 255.515625 -271.625 L 162.28125 -328.03125 L 162.28125 -380.390625 C 162.28125 -384.234375 159.113281 -389.03125 152.78125 -394.78125 C 146.457031 -400.539062 138.882812 -403.421875 130.0625 -403.421875 C 121.238281 -403.421875 113.753906 -400.539062 107.609375 -394.78125 C 101.472656 -389.03125 98.40625 -384.039062 98.40625 -379.8125 L 98.40625 -71.359375 C 98.40625 -67.523438 101.472656 -62.632812 107.609375 -56.6875 C 113.753906 -50.738281 121.238281 -47.765625 130.0625 -47.765625 C 138.882812 -47.765625 146.457031 -50.738281 152.78125 -56.6875 C 159.113281 -62.632812 162.472656 -67.523438 162.859375 -71.359375 L 162.859375 -113.375 L 255.515625 -173.21875 L 255.515625 -54.09375 C 256.660156 -47.570312 259.726562 -41.816406 264.71875 -36.828125 Z M 231.34375 -1.71875 Z M 231.34375 -1.71875 "/></g></g></g></g></g></g><g clip-path="url(#496ddaba2a)"><g transform="matrix(1, 0, 0, 1, 1142, -0.000000000000071054)"><g clip-path="url(#a0e88ba76e)"><g clip-path="url(#c15f57bc6a)"><g fill="#ffffff" fill-opacity="1"><g transform="translate(0.212448, 451.472738)"><g><path d="M 0 -449.453125 L 324 -449.453125 L 324 -443.703125 L 308.453125 -428.734375 L 307.890625 -402.84375 L 293.5 -402.84375 L 293.5 -342.40625 L 235.953125 -367.15625 L 235.953125 -389.03125 C 235.953125 -389.03125 235.757812 -390.273438 235.375 -392.765625 C 234.988281 -395.265625 233.929688 -397.664062 232.203125 -399.96875 C 230.484375 -402.269531 227.128906 -403.421875 222.140625 -403.421875 C 217.535156 -403.421875 214.367188 -401.976562 212.640625 -399.09375 C 210.910156 -396.21875 209.945312 -393.34375 209.75 -390.46875 C 209.5625 -387.59375 209.46875 -386.15625 209.46875 -386.15625 L 210.046875 -47.1875 L 230.765625 -47.1875 L 230.765625 -20.140625 L 246.875 -5.171875 L 246.875 0 L 77.109375 0 L 77.109375 -5.171875 L 93.234375 -20.140625 L 92.65625 -47.1875 L 112.21875 -47.1875 L 112.21875 -392.484375 C 111.832031 -394.785156 110.773438 -397.085938 109.046875 -399.390625 C 107.328125 -401.691406 104.359375 -402.84375 100.140625 -402.84375 C 95.535156 -403.226562 92.269531 -402.171875 90.34375 -399.671875 C 88.425781 -397.179688 87.273438 -394.6875 86.890625 -392.1875 C 86.515625 -389.695312 86.328125 -388.453125 86.328125 -388.453125 L 86.328125 -367.15625 L 30.5 -343.5625 L 30.5 -403.421875 L 16.109375 -402.84375 L 16.109375 -428.734375 L 0 -444.28125 Z M 0 -449.453125 "/></g></g></g></g></g></g></g><g transform="matrix(1, 0, 0, 1, 357, 293)"><g clip-path="url(#f73e6c8604)"><g fill="#ffffff" fill-opacity="1"><g transform="translate(3.345604, 153.550137)"><g><path d="M 0 -151.53125 L 109.738281 -151.53125 L 109.738281 -147.054688 L 104.011719 -141.539062 L 102.761719 -142.832031 L 104.558594 -142.792969 L 104.328125 -132.410156 L 97.777344 -132.410156 L 97.777344 -134.207031 L 99.574219 -134.207031 L 99.574219 -111.34375 L 76.808594 -121.136719 L 76.808594 -129.605469 L 78.605469 -129.605469 L 76.828125 -129.332031 L 76.636719 -130.578125 C 76.554688 -131.113281 76.316406 -131.640625 75.921875 -132.167969 C 75.707031 -132.457031 75.066406 -132.601562 74.003906 -132.601562 C 73.148438 -132.601562 72.609375 -132.410156 72.382812 -132.035156 C 71.957031 -131.324219 71.722656 -130.632812 71.675781 -129.964844 L 71.582031 -128.527344 L 69.785156 -128.644531 L 71.585938 -128.648438 L 71.777344 -15.722656 L 69.980469 -15.722656 L 69.980469 -17.519531 L 78.679688 -17.519531 L 78.679688 -6.710938 L 76.878906 -6.710938 L 78.105469 -8.027344 L 84.046875 -2.507812 L 84.046875 1.796875 L 23.894531 1.796875 L 23.894531 -2.507812 L 29.835938 -8.027344 L 31.058594 -6.710938 L 29.261719 -6.671875 L 29.03125 -17.519531 L 37.386719 -17.519531 L 37.386719 -15.722656 L 35.589844 -15.722656 L 35.589844 -130.753906 L 37.386719 -130.753906 L 35.613281 -130.460938 C 35.53125 -130.9375 35.292969 -131.445312 34.894531 -131.976562 C 34.679688 -132.265625 34.167969 -132.410156 33.359375 -132.410156 L 33.285156 -132.410156 L 33.210938 -132.414062 C 32.328125 -132.488281 31.765625 -132.367188 31.523438 -132.054688 C 31.074219 -131.46875 30.808594 -130.910156 30.726562 -130.386719 L 30.535156 -129.140625 L 28.757812 -129.414062 L 30.554688 -129.414062 L 30.554688 -121.128906 L 8.363281 -111.746094 L 8.363281 -134.398438 L 10.160156 -134.398438 L 10.234375 -132.601562 L 3.570312 -132.335938 L 3.570312 -142.832031 L 5.367188 -142.832031 L 4.121094 -141.539062 L -1.796875 -147.246094 L -1.796875 -151.53125 Z M 0 -147.9375 L 0 -149.734375 L 1.796875 -149.734375 L 1.796875 -148.007812 L 0 -148.007812 L 1.246094 -149.304688 L 7.164062 -143.597656 L 7.164062 -134.207031 L 5.367188 -134.207031 L 5.296875 -136 L 11.957031 -136.269531 L 11.957031 -114.457031 L 10.160156 -114.457031 L 9.460938 -116.113281 L 28.058594 -123.972656 L 28.757812 -122.320312 L 26.960938 -122.320312 L 26.960938 -129.550781 L 27.171875 -130.933594 C 27.347656 -132.066406 27.847656 -133.171875 28.675781 -134.246094 C 29.714844 -135.59375 31.324219 -136.179688 33.507812 -135.996094 L 33.359375 -134.207031 L 33.359375 -136.003906 C 35.363281 -136.003906 36.835938 -135.378906 37.769531 -134.132812 C 38.519531 -133.132812 38.984375 -132.105469 39.160156 -131.050781 L 39.183594 -130.902344 L 39.183594 -13.925781 L 30.867188 -13.925781 L 30.867188 -15.722656 L 32.664062 -15.757812 L 32.875 -5.941406 L 26.914062 -0.410156 L 25.691406 -1.726562 L 27.488281 -1.726562 L 27.488281 0 L 25.691406 0 L 25.691406 -1.796875 L 82.25 -1.796875 L 82.25 0 L 80.453125 0 L 80.453125 -1.726562 L 82.25 -1.726562 L 81.027344 -0.410156 L 75.082031 -5.925781 L 75.082031 -15.722656 L 76.878906 -15.722656 L 76.878906 -13.925781 L 68.183594 -13.925781 L 67.988281 -128.703125 L 68.089844 -130.203125 C 68.171875 -131.449219 68.574219 -132.675781 69.300781 -133.882812 C 70.222656 -135.425781 71.792969 -136.195312 74.003906 -136.195312 C 76.265625 -136.195312 77.863281 -135.570312 78.796875 -134.324219 C 79.554688 -133.320312 80.015625 -132.25 80.191406 -131.125 L 80.402344 -129.742188 L 80.402344 -122.320312 L 78.605469 -122.320312 L 79.316406 -123.96875 L 98.488281 -115.726562 L 97.777344 -114.074219 L 95.980469 -114.074219 L 95.980469 -136.003906 L 102.570312 -136.003906 L 102.570312 -134.207031 L 100.773438 -134.246094 L 100.984375 -143.613281 L 106.691406 -149.113281 L 107.941406 -147.816406 L 106.140625 -147.816406 L 106.140625 -149.734375 L 107.941406 -149.734375 L 107.941406 -147.9375 Z M 0 -147.9375 "/></g></g><g transform="translate(116.078357, 153.550137)"><g><path d="M 98.472656 -7.980469 L 103.984375 -2.46875 L 103.984375 1.796875 L 53.609375 1.796875 L 53.609375 -2.488281 L 59.335938 -8.003906 L 60.585938 -6.710938 L 58.785156 -6.710938 L 58.785156 -17.519531 L 65.570312 -17.519531 L 65.570312 -15.722656 L 63.867188 -15.148438 L 48.527344 -60.777344 L 50.230469 -61.351562 L 51.46875 -60.046875 L 43.992188 -52.953125 L 42.753906 -54.257812 L 44.550781 -54.257812 L 44.550781 -15.722656 L 42.753906 -15.722656 L 42.753906 -17.519531 L 49.34375 -17.519531 L 49.34375 -6.710938 L 47.546875 -6.710938 L 48.792969 -8.003906 L 54.519531 -2.488281 L 54.519531 1.796875 L -1.796875 1.796875 L -1.796875 -2.488281 L 3.929688 -8.003906 L 5.175781 -6.710938 L 3.378906 -6.710938 L 3.378906 -17.519531 L 10.160156 -17.519531 L 10.160156 -15.722656 L 8.363281 -15.710938 L 7.980469 -80.703125 L 8.363281 -134.21875 L 10.160156 -134.207031 L 10.09375 -132.410156 L 3.378906 -132.667969 L 3.378906 -142.832031 L 5.175781 -142.832031 L 3.929688 -141.539062 L -1.796875 -147.054688 L -1.796875 -151.339844 L 79.398438 -151.339844 L 81.226562 -149.96875 L 81.339844 -149.25 C 81.65625 -147.25 82.671875 -145.496094 84.390625 -143.992188 C 86.097656 -142.5 88.132812 -141.753906 90.492188 -141.753906 L 91.621094 -141.753906 L 93.441406 -139.933594 L 93.441406 -136.40625 L 92.992188 -135.0625 L 92.59375 -134.734375 C 90.859375 -133.304688 89.988281 -131.210938 89.988281 -128.453125 L 89.988281 -98.546875 C 89.988281 -95.789062 90.859375 -93.695312 92.59375 -92.265625 L 92.992188 -91.933594 L 93.441406 -90.59375 L 93.441406 -86.847656 L 91.488281 -85.546875 L 90.492188 -87.042969 L 91.5625 -85.597656 L 73.734375 -72.371094 L 72.664062 -73.8125 L 74.363281 -74.390625 L 94.113281 -16.300781 L 92.410156 -15.722656 L 92.410156 -17.519531 L 99 -17.519531 L 99 -6.710938 L 97.203125 -6.710938 Z M 95.40625 -5.964844 L 95.40625 -15.722656 L 97.203125 -15.722656 L 97.203125 -13.925781 L 91.121094 -13.925781 L 70.539062 -74.476562 L 89.457031 -88.511719 L 90.644531 -89.304688 L 91.644531 -87.808594 L 89.847656 -87.808594 L 89.847656 -90.300781 L 91.644531 -90.300781 L 89.9375 -89.734375 L 89.746094 -90.308594 L 91.453125 -90.875 L 90.308594 -89.488281 C 87.699219 -91.636719 86.394531 -94.65625 86.394531 -98.546875 L 86.394531 -128.453125 C 86.394531 -132.34375 87.699219 -135.363281 90.308594 -137.511719 L 91.453125 -136.121094 L 89.746094 -136.691406 L 89.9375 -137.265625 L 91.644531 -136.699219 L 89.847656 -136.699219 L 89.847656 -139.191406 L 91.644531 -139.191406 L 90.371094 -137.917969 L 89.605469 -138.6875 L 90.875 -139.957031 L 90.875 -138.160156 L 90.492188 -138.160156 C 87.230469 -138.160156 84.40625 -139.203125 82.023438 -141.289062 C 79.652344 -143.363281 78.242188 -145.832031 77.789062 -148.6875 L 79.566406 -148.96875 L 78.488281 -147.53125 L 77.71875 -148.105469 L 78.796875 -149.542969 L 78.796875 -147.746094 L 0 -147.746094 L 0 -149.542969 L 1.796875 -149.542969 L 1.796875 -147.816406 L 0 -147.816406 L 1.246094 -149.113281 L 6.972656 -143.597656 L 6.972656 -134.398438 L 5.175781 -134.398438 L 5.246094 -136.195312 L 11.972656 -135.933594 L 11.574219 -80.726562 L 11.96875 -13.925781 L 5.175781 -13.925781 L 5.175781 -15.722656 L 6.972656 -15.722656 L 6.972656 -5.945312 L 1.246094 -0.429688 L 0 -1.726562 L 1.796875 -1.726562 L 1.796875 0 L 0 0 L 0 -1.796875 L 52.722656 -1.796875 L 52.722656 0 L 50.925781 0 L 50.925781 -1.726562 L 52.722656 -1.726562 L 51.476562 -0.429688 L 45.75 -5.945312 L 45.75 -15.722656 L 47.546875 -15.722656 L 47.546875 -13.925781 L 40.957031 -13.925781 L 40.957031 -55.03125 L 51.039062 -64.59375 L 68.070312 -13.925781 L 60.585938 -13.925781 L 60.585938 -15.722656 L 62.382812 -15.722656 L 62.382812 -5.945312 L 56.65625 -0.429688 L 55.40625 -1.726562 L 57.207031 -1.726562 L 57.207031 0 L 55.40625 0 L 55.40625 -1.796875 L 102.1875 -1.796875 L 102.1875 0 L 100.390625 0 L 100.390625 -1.726562 L 102.1875 -1.726562 L 100.917969 -0.453125 Z M 52.84375 -83.589844 L 52.84375 -130.371094 C 52.84375 -130.558594 52.542969 -130.996094 51.945312 -131.679688 C 51.410156 -132.292969 50.835938 -132.601562 50.230469 -132.601562 L 42.753906 -132.601562 L 42.753906 -134.398438 L 44.550781 -134.398438 L 44.550781 -73.621094 L 42.753906 -73.621094 L 41.597656 -75 L 53.484375 -84.96875 L 54.640625 -83.589844 Z M 56.4375 -82.753906 L 40.957031 -69.769531 L 40.957031 -136.195312 L 50.230469 -136.195312 C 51.925781 -136.195312 53.398438 -135.480469 54.652344 -134.046875 C 55.84375 -132.6875 56.4375 -131.460938 56.4375 -130.371094 Z M 56.4375 -82.753906 "/></g></g></g><g fill="#ffffff" fill-opacity="1"><g transform="translate(224.976651, 153.550137)"><g><path d="M 108.417969 -8.003906 L 114.148438 -2.488281 L 114.148438 1.796875 L 62.429688 1.796875 L 62.429688 -2.277344 L 68.324219 -8.171875 L 69.59375 -6.902344 L 67.796875 -6.902344 L 67.796875 -17.519531 L 74.195312 -17.519531 L 74.195312 -15.722656 L 72.4375 -15.359375 L 66.683594 -43.351562 L 68.445312 -43.710938 L 69.714844 -42.441406 C 68.46875 -41.195312 67.28125 -39.296875 66.160156 -36.753906 C 64.96875 -34.058594 63.902344 -31.300781 62.960938 -28.476562 C 62.011719 -25.632812 61.253906 -23.171875 60.6875 -21.097656 L 59.800781 -17.832031 L 59.761719 -17.738281 C 59.203125 -16.34375 58.199219 -15.648438 56.75 -15.648438 C 55.871094 -15.648438 55.160156 -15.921875 54.617188 -16.464844 C 54.074219 -17.007812 53.800781 -17.71875 53.800781 -18.597656 L 55.597656 -18.597656 L 53.804688 -18.503906 C 53.6875 -20.746094 52.988281 -23.570312 51.710938 -26.976562 C 50.394531 -30.488281 48.953125 -33.746094 47.390625 -36.746094 C 45.894531 -39.621094 44.65625 -41.492188 43.667969 -42.371094 L 44.863281 -43.710938 L 46.628906 -43.386719 L 41.453125 -15.394531 L 39.6875 -15.722656 L 39.6875 -17.519531 L 46.46875 -17.519531 L 46.46875 -6.710938 L 44.671875 -6.710938 L 45.894531 -8.027344 L 51.835938 -2.507812 L 51.835938 1.796875 L -1.796875 1.796875 L -1.796875 -2.507812 L 4.144531 -8.027344 L 5.367188 -6.710938 L 3.570312 -6.710938 L 3.570312 -17.519531 L 10.160156 -17.519531 L 10.160156 -15.722656 L 8.398438 -16.066406 L 31.597656 -134.550781 L 33.359375 -134.207031 L 33.359375 -132.410156 L 26.578125 -132.410156 L 26.578125 -142.832031 L 28.375 -142.832031 L 27.128906 -141.539062 L 21.402344 -147.054688 L 21.402344 -151.53125 L 90.757812 -151.53125 L 90.757812 -147.054688 L 85.03125 -141.539062 L 83.78125 -142.832031 L 85.578125 -142.832031 L 85.578125 -132.671875 L 79.0625 -132.410156 L 78.988281 -134.207031 L 80.753906 -134.554688 L 104.144531 -16.070312 L 102.378906 -15.722656 L 102.378906 -17.519531 L 108.96875 -17.519531 L 108.96875 -6.710938 L 107.171875 -6.710938 Z M 105.375 -5.945312 L 105.375 -15.722656 L 107.171875 -15.722656 L 107.171875 -13.925781 L 100.902344 -13.925781 L 76.820312 -135.917969 L 83.710938 -136.191406 L 83.78125 -134.398438 L 81.984375 -134.398438 L 81.984375 -143.597656 L 87.710938 -149.113281 L 88.960938 -147.816406 L 87.160156 -147.816406 L 87.160156 -149.734375 L 88.960938 -149.734375 L 88.960938 -147.9375 L 23.199219 -147.9375 L 23.199219 -149.734375 L 24.996094 -149.734375 L 24.996094 -147.816406 L 23.199219 -147.816406 L 24.445312 -149.113281 L 30.171875 -143.597656 L 30.171875 -134.207031 L 28.375 -134.207031 L 28.375 -136.003906 L 35.542969 -136.003906 L 11.640625 -13.925781 L 5.367188 -13.925781 L 5.367188 -15.722656 L 7.164062 -15.722656 L 7.164062 -5.925781 L 1.222656 -0.410156 L 0 -1.726562 L 1.796875 -1.726562 L 1.796875 0 L 0 0 L 0 -1.796875 L 50.039062 -1.796875 L 50.039062 0 L 48.242188 0 L 48.242188 -1.726562 L 50.039062 -1.726562 L 48.816406 -0.410156 L 42.875 -5.925781 L 42.875 -15.722656 L 44.671875 -15.722656 L 44.671875 -13.925781 L 37.527344 -13.925781 L 43.675781 -47.171875 L 46.058594 -45.054688 C 47.371094 -43.886719 48.878906 -41.671875 50.578125 -38.40625 C 52.210938 -35.277344 53.710938 -31.886719 55.078125 -28.238281 C 56.484375 -24.488281 57.257812 -21.304688 57.394531 -18.691406 L 57.398438 -18.644531 L 57.398438 -18.597656 C 57.398438 -18.710938 57.316406 -18.847656 57.15625 -19.003906 C 57 -19.164062 56.863281 -19.242188 56.75 -19.242188 C 56.578125 -19.242188 56.46875 -19.1875 56.421875 -19.074219 L 58.09375 -18.40625 L 56.359375 -18.878906 L 57.21875 -22.042969 C 57.804688 -24.183594 58.582031 -26.707031 59.550781 -29.613281 C 60.527344 -32.542969 61.632812 -35.410156 62.871094 -38.207031 C 64.175781 -41.160156 65.609375 -43.417969 67.175781 -44.984375 L 69.535156 -47.34375 L 76.402344 -13.925781 L 69.59375 -13.925781 L 69.59375 -15.722656 L 71.394531 -15.722656 L 71.394531 -6.15625 L 65.496094 -0.261719 L 64.226562 -1.535156 L 66.023438 -1.535156 L 66.023438 0 L 64.226562 0 L 64.226562 -1.796875 L 112.347656 -1.796875 L 112.347656 0 L 110.550781 0 L 110.550781 -1.726562 L 112.347656 -1.726562 L 111.101562 -0.429688 L 105.925781 -5.414062 Z M 55.140625 -53.335938 C 55.613281 -54.277344 56.492188 -55.390625 57.78125 -56.679688 C 58.941406 -57.839844 60.136719 -59.003906 61.359375 -60.164062 C 62.613281 -61.347656 63.578125 -62.210938 64.253906 -62.753906 L 65.378906 -61.351562 L 63.59375 -61.121094 L 54.96875 -127.457031 L 56.75 -127.6875 L 58.535156 -127.480469 L 50.867188 -60.761719 L 49.082031 -60.96875 L 50.265625 -62.320312 C 51.339844 -61.378906 52.796875 -59.890625 54.632812 -57.859375 C 56.480469 -55.8125 57.683594 -54.367188 58.246094 -53.527344 L 56.75 -52.53125 Z M 58.359375 -51.726562 L 56.972656 -48.957031 L 55.253906 -51.535156 C 54.792969 -52.230469 53.695312 -53.535156 51.964844 -55.449219 C 50.222656 -57.378906 48.867188 -58.765625 47.898438 -59.613281 L 47.1875 -60.234375 L 54.964844 -127.890625 L 58.53125 -127.917969 L 67.289062 -60.578125 L 66.5 -59.949219 C 65.898438 -59.46875 65.011719 -58.667969 63.832031 -57.554688 C 62.632812 -56.414062 61.460938 -55.277344 60.320312 -54.136719 C 59.308594 -53.125 58.652344 -52.320312 58.359375 -51.726562 Z M 58.359375 -51.726562 "/></g></g></g><g fill="#ffffff" fill-opacity="1"><g transform="translate(342.119005, 153.550137)"><g><path d="M 89.628906 -13.347656 L 89.917969 -12.964844 C 90.453125 -12.253906 90.585938 -11.363281 90.320312 -10.300781 L 90.199219 -9.816406 L 89.847656 -9.464844 C 89.636719 -9.253906 89.382812 -9.050781 89.09375 -8.859375 L 88.460938 -8.4375 L 88.050781 -8.378906 C 85.597656 -8.046875 83.480469 -7.101562 81.707031 -5.550781 C 80.015625 -4.070312 79.066406 -2.347656 78.859375 -0.386719 L 78.691406 1.222656 L 77.074219 1.222656 C 77.371094 1.222656 77.625 1.152344 77.828125 1.015625 L 77.847656 1.003906 C 77.824219 1.023438 77.800781 1.046875 77.769531 1.078125 L 77.511719 1.335938 L 76.242188 0.0625 L 74.96875 -1.207031 L 75.035156 -1.269531 L 76.304688 0 L 76.304688 1.796875 L 10.160156 1.796875 C 9.539062 1.796875 8.984375 1.558594 8.507812 1.078125 C 8.027344 0.601562 7.789062 0.0820312 7.789062 -0.480469 L 7.789062 -0.574219 L 9.585938 -0.574219 L 7.792969 -0.480469 C 7.691406 -2.402344 6.808594 -4.09375 5.144531 -5.550781 C 3.371094 -7.097656 1.195312 -8.042969 -1.382812 -8.378906 L -1.796875 -8.433594 L -2.433594 -8.859375 C -2.726562 -9.050781 -2.976562 -9.253906 -3.1875 -9.464844 L -3.539062 -9.816406 L -3.660156 -10.300781 C -3.894531 -11.242188 -3.851562 -12.039062 -3.523438 -12.691406 L -3.203125 -13.335938 L -2.996094 -13.542969 C -1.558594 -14.980469 -0.839844 -16.730469 -0.839844 -18.789062 L -0.839844 -130.753906 C -0.839844 -132.816406 -1.558594 -134.5625 -2.996094 -136.003906 L -3.203125 -136.207031 L -3.523438 -136.851562 C -3.851562 -137.503906 -3.894531 -138.300781 -3.660156 -139.242188 L -3.613281 -139.433594 L -3.523438 -139.609375 C -3.175781 -140.308594 -2.667969 -140.769531 -2.007812 -140.992188 L -1.554688 -141.140625 L -1.382812 -141.164062 C 1.183594 -141.5 3.351562 -142.46875 5.121094 -144.070312 C 6.800781 -145.59375 7.691406 -147.257812 7.792969 -149.066406 L 9.585938 -148.96875 L 7.789062 -148.96875 L 7.789062 -149.160156 C 7.789062 -149.785156 8.027344 -150.335938 8.507812 -150.8125 L 9.035156 -151.339844 L 77.242188 -151.339844 L 77.769531 -150.8125 C 78.246094 -150.335938 78.488281 -149.785156 78.488281 -149.160156 L 78.488281 -148.96875 L 76.6875 -148.96875 L 78.476562 -149.167969 C 78.679688 -147.316406 79.636719 -145.617188 81.347656 -144.070312 C 83.117188 -142.464844 85.222656 -141.496094 87.667969 -141.164062 L 87.835938 -141.140625 L 88.28125 -140.992188 C 88.945312 -140.769531 89.449219 -140.308594 89.800781 -139.609375 L 89.886719 -139.433594 L 89.9375 -139.242188 C 90.171875 -138.300781 90.125 -137.503906 89.800781 -136.851562 L 89.476562 -136.207031 L 89.273438 -136.003906 C 87.707031 -134.4375 86.921875 -132.429688 86.921875 -129.988281 L 86.921875 -87.304688 L 52.269531 -108.269531 L 52.269531 -126.726562 C 52.269531 -127.476562 51.410156 -128.632812 49.691406 -130.191406 C 47.925781 -131.796875 45.804688 -132.601562 43.328125 -132.601562 C 40.863281 -132.601562 38.78125 -131.804688 37.082031 -130.210938 C 35.414062 -128.648438 34.582031 -127.421875 34.582031 -126.535156 L 34.582031 -23.773438 C 34.582031 -23.003906 35.421875 -21.804688 37.101562 -20.175781 C 38.800781 -18.53125 40.875 -17.710938 43.328125 -17.710938 C 45.792969 -17.710938 47.910156 -18.539062 49.671875 -20.195312 C 51.453125 -21.867188 52.386719 -23.121094 52.46875 -23.953125 L 54.257812 -23.773438 L 52.460938 -23.773438 L 52.460938 -38.746094 L 86.921875 -61.007812 L 86.921875 -18.023438 L 85.125 -18.023438 L 86.894531 -18.335938 C 87.210938 -16.535156 88.070312 -14.9375 89.464844 -13.542969 L 89.554688 -13.449219 Z M 86.753906 -11.191406 L 88.191406 -12.269531 L 86.921875 -11 C 84.992188 -12.929688 83.804688 -15.164062 83.355469 -17.710938 L 83.328125 -17.863281 L 83.328125 -57.707031 L 85.125 -57.707031 L 86.101562 -56.199219 L 55.234375 -36.257812 L 54.257812 -37.769531 L 56.054688 -37.769531 L 56.054688 -23.683594 L 56.046875 -23.59375 C 55.875 -21.871094 54.570312 -19.863281 52.132812 -17.574219 C 49.679688 -15.269531 46.742188 -14.117188 43.328125 -14.117188 C 39.902344 -14.117188 36.996094 -15.273438 34.601562 -17.59375 C 32.191406 -19.929688 30.988281 -21.988281 30.988281 -23.773438 L 30.988281 -126.535156 C 30.988281 -128.460938 32.199219 -130.558594 34.621094 -132.832031 C 37.011719 -135.074219 39.914062 -136.195312 43.328125 -136.195312 C 46.730469 -136.195312 49.660156 -135.082031 52.113281 -132.851562 C 54.613281 -130.578125 55.863281 -128.535156 55.863281 -126.726562 L 55.863281 -109.28125 L 54.066406 -109.28125 L 54.996094 -110.820312 L 86.054688 -92.03125 L 85.125 -90.492188 L 83.328125 -90.492188 L 83.328125 -129.988281 C 83.328125 -133.425781 84.460938 -136.277344 86.730469 -138.542969 L 88 -137.273438 L 86.394531 -138.078125 L 86.585938 -138.460938 C 86.523438 -138.335938 86.492188 -138.226562 86.492188 -138.136719 C 86.492188 -138.179688 86.476562 -138.257812 86.449219 -138.371094 L 88.191406 -138.808594 L 86.585938 -138.003906 C 86.679688 -137.816406 86.867188 -137.675781 87.144531 -137.582031 L 86.855469 -137.675781 L 87.425781 -139.382812 L 87.183594 -137.601562 C 84.003906 -138.035156 81.253906 -139.304688 78.933594 -141.40625 C 76.550781 -143.5625 75.207031 -146.019531 74.902344 -148.769531 L 74.890625 -148.867188 L 74.890625 -149.160156 C 74.890625 -148.792969 75.003906 -148.496094 75.226562 -148.273438 L 76.496094 -149.542969 L 76.496094 -147.746094 L 9.777344 -147.746094 L 9.777344 -149.542969 L 11.046875 -148.273438 C 11.273438 -148.496094 11.382812 -148.792969 11.382812 -149.160156 L 11.382812 -148.917969 L 11.378906 -148.867188 C 11.226562 -146.078125 9.941406 -143.589844 7.535156 -141.40625 C 5.210938 -139.300781 2.394531 -138.03125 -0.917969 -137.601562 L -1.148438 -139.382812 L -0.582031 -137.675781 L -0.871094 -137.582031 C -0.589844 -137.675781 -0.402344 -137.816406 -0.308594 -138.003906 L -1.917969 -138.808594 L -0.171875 -138.371094 C -0.203125 -138.257812 -0.214844 -138.179688 -0.214844 -138.136719 C -0.214844 -138.226562 -0.246094 -138.335938 -0.308594 -138.460938 L -0.117188 -138.078125 L -1.726562 -137.273438 L -0.453125 -138.542969 C 1.6875 -136.402344 2.757812 -133.808594 2.757812 -130.753906 L 2.757812 -18.789062 C 2.757812 -15.734375 1.6875 -13.140625 -0.453125 -11 L -1.726562 -12.269531 L -0.117188 -11.464844 L -0.308594 -11.082031 C -0.246094 -11.207031 -0.214844 -11.316406 -0.214844 -11.40625 C -0.214844 -11.363281 -0.203125 -11.285156 -0.171875 -11.171875 L -1.917969 -10.738281 L -0.644531 -12.007812 C -0.601562 -11.964844 -0.535156 -11.910156 -0.441406 -11.847656 L -0.152344 -11.65625 L -1.148438 -10.160156 L -0.917969 -11.945312 C 2.382812 -11.511719 5.191406 -10.285156 7.511719 -8.253906 C 9.9375 -6.132812 11.226562 -3.605469 11.382812 -0.667969 L 11.382812 -0.480469 C 11.382812 -0.910156 11.273438 -1.238281 11.046875 -1.460938 C 10.824219 -1.6875 10.53125 -1.796875 10.160156 -1.796875 L 80.644531 -1.796875 L 77.511719 1.335938 C 77.160156 1.6875 76.738281 1.859375 76.242188 1.859375 C 75.746094 1.859375 75.320312 1.6875 74.96875 1.335938 C 74.621094 0.984375 74.445312 0.558594 74.445312 0.0625 C 74.445312 -0.433594 74.621094 -0.855469 74.96875 -1.207031 L 75.226562 -1.460938 C 75.832031 -2.070312 76.449219 -2.371094 77.074219 -2.371094 L 77.074219 -0.574219 L 75.285156 -0.761719 C 75.589844 -3.660156 76.941406 -6.15625 79.339844 -8.253906 C 81.65625 -10.28125 84.398438 -11.511719 87.566406 -11.941406 L 87.808594 -10.160156 L 86.8125 -11.65625 L 87.097656 -11.847656 C 87.191406 -11.910156 87.261719 -11.964844 87.304688 -12.007812 L 88.574219 -10.738281 L 86.832031 -11.171875 C 86.84375 -11.21875 86.851562 -11.257812 86.855469 -11.289062 C 86.855469 -11.285156 86.855469 -11.277344 86.855469 -11.257812 C 86.867188 -11.105469 86.929688 -10.957031 87.042969 -10.808594 Z M 86.753906 -11.191406 "/></g></g></g><g fill="#ffffff" fill-opacity="1"><g transform="translate(436.446378, 153.550137)"><g><path d="M 3.570312 -134.207031 L 3.570312 -142.832031 L 5.367188 -142.832031 L 4.121094 -141.539062 L -1.796875 -147.246094 L -1.796875 -151.539062 L 54.710938 -151.335938 L 54.710938 -147.054688 L 48.984375 -141.539062 L 47.738281 -142.832031 L 49.535156 -142.832031 L 49.535156 -132.601562 L 42.753906 -132.601562 L 42.753906 -134.398438 L 44.550781 -134.398438 L 44.550781 -86.660156 L 42.753906 -86.660156 L 41.136719 -87.4375 L 64.140625 -135.175781 L 65.761719 -134.398438 L 65.761719 -132.601562 L 58.980469 -132.601562 L 58.980469 -142.832031 L 60.777344 -142.832031 L 59.527344 -141.539062 L 53.800781 -147.054688 L 53.800781 -151.332031 L 105.328125 -151.539062 L 105.328125 -147.054688 L 99.601562 -141.539062 L 98.355469 -142.832031 L 100.152344 -142.832031 L 100.152344 -132.601562 L 93.753906 -132.601562 L 93.753906 -134.398438 L 95.332031 -133.539062 L 74.816406 -95.769531 L 73.238281 -96.628906 L 74.953125 -97.160156 L 100.070312 -16.253906 L 98.355469 -15.722656 L 98.355469 -17.519531 L 104.945312 -17.519531 L 104.945312 -6.710938 L 103.148438 -6.710938 L 104.394531 -8.003906 L 110.121094 -2.488281 L 110.121094 1.796875 L 53.800781 1.796875 L 53.800781 -2.488281 L 59.527344 -8.003906 L 60.777344 -6.710938 L 58.980469 -6.710938 L 58.980469 -17.519531 L 65.761719 -17.519531 L 65.761719 -15.722656 L 64.035156 -15.214844 L 50.039062 -62.761719 L 51.765625 -63.269531 L 53.328125 -62.382812 L 44.316406 -46.46875 L 42.753906 -47.355469 L 44.550781 -47.355469 L 44.550781 -15.722656 L 42.753906 -15.722656 L 42.753906 -17.519531 L 49.535156 -17.519531 L 49.535156 -6.710938 L 47.738281 -6.710938 L 48.960938 -8.027344 L 54.710938 -2.703125 L 54.710938 1.796875 L -1.605469 1.796875 L -1.605469 -2.488281 L 4.121094 -8.003906 L 5.367188 -6.710938 L 3.570312 -6.710938 L 3.570312 -17.519531 L 10.351562 -17.519531 L 10.351562 -15.722656 L 8.554688 -15.722656 L 8.554688 -134.207031 L 10.351562 -134.207031 L 10.351562 -132.410156 L 3.570312 -132.410156 Z M 7.164062 -134.207031 L 5.367188 -134.207031 L 5.367188 -136.003906 L 12.152344 -136.003906 L 12.152344 -13.925781 L 5.367188 -13.925781 L 5.367188 -15.722656 L 7.164062 -15.722656 L 7.164062 -5.945312 L 1.4375 -0.429688 L 0.191406 -1.726562 L 1.988281 -1.726562 L 1.988281 0 L 0.191406 0 L 0.191406 -1.796875 L 52.914062 -1.796875 L 52.914062 0 L 51.117188 0 L 51.117188 -1.917969 L 52.914062 -1.917969 L 51.695312 -0.597656 L 45.941406 -5.925781 L 45.941406 -15.722656 L 47.738281 -15.722656 L 47.738281 -13.925781 L 40.957031 -13.925781 L 40.957031 -47.828125 L 52.292969 -67.84375 L 68.164062 -13.925781 L 60.777344 -13.925781 L 60.777344 -15.722656 L 62.574219 -15.722656 L 62.574219 -5.945312 L 56.847656 -0.429688 L 55.597656 -1.726562 L 57.398438 -1.726562 L 57.398438 0 L 55.597656 0 L 55.597656 -1.796875 L 108.324219 -1.796875 L 108.324219 0 L 106.527344 0 L 106.527344 -1.726562 L 108.324219 -1.726562 L 107.078125 -0.429688 L 101.347656 -5.945312 L 101.347656 -15.722656 L 103.148438 -15.722656 L 103.148438 -13.925781 L 97.03125 -13.925781 L 71.296875 -96.820312 L 92.683594 -136.195312 L 98.355469 -136.195312 L 98.355469 -134.398438 L 96.554688 -134.398438 L 96.554688 -143.597656 L 102.285156 -149.113281 L 103.53125 -147.816406 L 101.734375 -147.816406 L 101.734375 -149.734375 L 103.53125 -149.734375 L 103.539062 -147.9375 L 55.605469 -147.746094 L 55.597656 -149.542969 L 57.398438 -149.542969 L 57.398438 -147.816406 L 55.597656 -147.816406 L 56.847656 -149.113281 L 62.574219 -143.597656 L 62.574219 -134.398438 L 60.777344 -134.398438 L 60.777344 -136.195312 L 68.621094 -136.195312 L 44.375 -85.878906 L 40.957031 -86.660156 L 40.957031 -136.195312 L 47.738281 -136.195312 L 47.738281 -134.398438 L 45.941406 -134.398438 L 45.941406 -143.597656 L 51.667969 -149.113281 L 52.914062 -147.816406 L 51.117188 -147.816406 L 51.117188 -149.542969 L 52.914062 -149.542969 L 52.910156 -147.746094 L -0.0078125 -147.9375 L 0 -149.734375 L 1.796875 -149.734375 L 1.796875 -148.007812 L 0 -148.007812 L 1.246094 -149.304688 L 7.164062 -143.597656 Z M 7.164062 -134.207031 "/></g></g></g><g fill="#ffffff" fill-opacity="1"><g transform="translate(552.438456, 153.550137)"><g><path d="M 8.363281 -15.722656 L 8.363281 -134.398438 L 10.160156 -134.398438 L 10.234375 -132.601562 L 3.570312 -132.335938 L 3.570312 -142.832031 L 5.367188 -142.832031 L 4.121094 -141.539062 L -1.796875 -147.246094 L -1.796875 -151.535156 L 97.273438 -151.335938 L 97.273438 -147.265625 L 91.570312 -141.5625 L 90.300781 -142.832031 L 92.097656 -142.832031 L 92.097656 -132.410156 L 85.316406 -132.410156 L 85.316406 -134.207031 L 87.113281 -134.207031 L 87.113281 -92.183594 L 49.390625 -113.800781 L 49.390625 -129.222656 L 51.191406 -129.222656 L 49.398438 -129.09375 L 49.300781 -130.433594 C 49.261719 -131.003906 49.046875 -131.566406 48.65625 -132.128906 C 48.441406 -132.441406 47.878906 -132.601562 46.972656 -132.601562 C 46.078125 -132.601562 45.492188 -132.386719 45.207031 -131.960938 C 44.746094 -131.269531 44.496094 -130.605469 44.453125 -129.964844 L 44.355469 -128.527344 L 42.5625 -128.644531 L 44.359375 -128.65625 L 44.550781 -93.761719 L 42.753906 -93.753906 L 42.753906 -95.550781 L 63.96875 -95.550781 L 70.457031 -63.964844 L 42.753906 -63.964844 L 42.753906 -65.761719 L 44.550781 -65.761719 L 44.550781 -20.515625 L 42.753906 -20.515625 L 44.546875 -20.664062 L 44.640625 -19.511719 C 44.679688 -19.03125 44.882812 -18.496094 45.242188 -17.910156 C 45.402344 -17.648438 45.851562 -17.519531 46.589844 -17.519531 C 47.660156 -17.519531 48.335938 -17.699219 48.613281 -18.0625 C 49.039062 -18.613281 49.269531 -19.097656 49.304688 -19.511719 L 49.398438 -20.664062 L 51.191406 -20.515625 L 49.390625 -20.515625 L 49.390625 -41.289062 L 87.113281 -63.539062 L 87.113281 -15.722656 L 85.316406 -15.722656 L 85.316406 -17.519531 L 92.097656 -17.519531 L 92.097656 -6.710938 L 90.300781 -6.710938 L 91.546875 -8.003906 L 97.273438 -2.488281 L 97.273438 1.796875 L -1.796875 1.796875 L -1.796875 -2.507812 L 4.144531 -8.027344 L 5.367188 -6.710938 L 3.570312 -6.710938 L 3.570312 -17.519531 L 10.160156 -17.519531 L 10.160156 -15.722656 Z M 11.957031 -13.925781 L 5.367188 -13.925781 L 5.367188 -15.722656 L 7.164062 -15.722656 L 7.164062 -5.925781 L 1.222656 -0.410156 L 0 -1.726562 L 1.796875 -1.726562 L 1.796875 0 L 0 0 L 0 -1.796875 L 95.476562 -1.796875 L 95.476562 0 L 93.679688 0 L 93.679688 -1.726562 L 95.476562 -1.726562 L 94.230469 -0.429688 L 88.503906 -5.945312 L 88.503906 -15.722656 L 90.300781 -15.722656 L 90.300781 -13.925781 L 83.519531 -13.925781 L 83.519531 -60.390625 L 85.316406 -60.390625 L 86.230469 -58.84375 L 52.101562 -38.714844 L 51.191406 -40.261719 L 52.988281 -40.261719 L 52.988281 -20.441406 L 52.886719 -19.214844 C 52.792969 -18.097656 52.316406 -16.980469 51.464844 -15.871094 C 50.464844 -14.574219 48.839844 -13.925781 46.589844 -13.925781 C 44.511719 -13.925781 43.042969 -14.625 42.183594 -16.027344 C 41.519531 -17.101562 41.144531 -18.164062 41.058594 -19.214844 L 40.957031 -20.441406 L 40.957031 -67.558594 L 68.253906 -67.558594 L 68.253906 -65.761719 L 66.492188 -65.398438 L 60.742188 -93.390625 L 62.5 -93.753906 L 62.5 -91.953125 L 40.964844 -91.953125 L 40.765625 -128.699219 L 40.863281 -130.203125 C 40.949219 -131.480469 41.402344 -132.730469 42.21875 -133.957031 C 43.210938 -135.449219 44.796875 -136.195312 46.972656 -136.195312 C 49.132812 -136.195312 50.679688 -135.519531 51.613281 -134.175781 C 52.375 -133.074219 52.800781 -131.914062 52.886719 -130.691406 L 52.988281 -129.285156 L 52.988281 -114.839844 L 51.191406 -114.839844 L 52.082031 -116.402344 L 86.210938 -96.84375 L 85.316406 -95.285156 L 83.519531 -95.285156 L 83.519531 -136.003906 L 90.300781 -136.003906 L 90.300781 -134.207031 L 88.503906 -134.207031 L 88.503906 -143.578125 L 94.207031 -149.28125 L 95.476562 -148.007812 L 93.679688 -148.007812 L 93.679688 -149.542969 L 95.476562 -149.542969 L 95.472656 -147.746094 L -0.00390625 -147.9375 L 0 -149.734375 L 1.796875 -149.734375 L 1.796875 -148.007812 L 0 -148.007812 L 1.246094 -149.304688 L 7.164062 -143.597656 L 7.164062 -134.207031 L 5.367188 -134.207031 L 5.296875 -136 L 11.957031 -136.269531 Z M 11.957031 -13.925781 "/></g></g></g><g fill="#ffffff" fill-opacity="1"><g transform="translate(653.667838, 153.550137)"><g><path d="M 98.472656 -7.980469 L 103.984375 -2.46875 L 103.984375 1.796875 L 53.609375 1.796875 L 53.609375 -2.488281 L 59.335938 -8.003906 L 60.585938 -6.710938 L 58.785156 -6.710938 L 58.785156 -17.519531 L 65.570312 -17.519531 L 65.570312 -15.722656 L 63.867188 -15.148438 L 48.527344 -60.777344 L 50.230469 -61.351562 L 51.46875 -60.046875 L 43.992188 -52.953125 L 42.753906 -54.257812 L 44.550781 -54.257812 L 44.550781 -15.722656 L 42.753906 -15.722656 L 42.753906 -17.519531 L 49.34375 -17.519531 L 49.34375 -6.710938 L 47.546875 -6.710938 L 48.792969 -8.003906 L 54.519531 -2.488281 L 54.519531 1.796875 L -1.796875 1.796875 L -1.796875 -2.488281 L 3.929688 -8.003906 L 5.175781 -6.710938 L 3.378906 -6.710938 L 3.378906 -17.519531 L 10.160156 -17.519531 L 10.160156 -15.722656 L 8.363281 -15.710938 L 7.980469 -80.703125 L 8.363281 -134.21875 L 10.160156 -134.207031 L 10.09375 -132.410156 L 3.378906 -132.667969 L 3.378906 -142.832031 L 5.175781 -142.832031 L 3.929688 -141.539062 L -1.796875 -147.054688 L -1.796875 -151.339844 L 79.398438 -151.339844 L 81.226562 -149.96875 L 81.339844 -149.25 C 81.65625 -147.25 82.671875 -145.496094 84.390625 -143.992188 C 86.097656 -142.5 88.132812 -141.753906 90.492188 -141.753906 L 91.621094 -141.753906 L 93.441406 -139.933594 L 93.441406 -136.40625 L 92.992188 -135.0625 L 92.59375 -134.734375 C 90.859375 -133.304688 89.988281 -131.210938 89.988281 -128.453125 L 89.988281 -98.546875 C 89.988281 -95.789062 90.859375 -93.695312 92.59375 -92.265625 L 92.992188 -91.933594 L 93.441406 -90.59375 L 93.441406 -86.847656 L 91.488281 -85.546875 L 90.492188 -87.042969 L 91.5625 -85.597656 L 73.734375 -72.371094 L 72.664062 -73.8125 L 74.363281 -74.390625 L 94.113281 -16.300781 L 92.410156 -15.722656 L 92.410156 -17.519531 L 99 -17.519531 L 99 -6.710938 L 97.203125 -6.710938 Z M 95.40625 -5.964844 L 95.40625 -15.722656 L 97.203125 -15.722656 L 97.203125 -13.925781 L 91.121094 -13.925781 L 70.539062 -74.476562 L 89.457031 -88.511719 L 90.644531 -89.304688 L 91.644531 -87.808594 L 89.847656 -87.808594 L 89.847656 -90.300781 L 91.644531 -90.300781 L 89.9375 -89.734375 L 89.746094 -90.308594 L 91.453125 -90.875 L 90.308594 -89.488281 C 87.699219 -91.636719 86.394531 -94.65625 86.394531 -98.546875 L 86.394531 -128.453125 C 86.394531 -132.34375 87.699219 -135.363281 90.308594 -137.511719 L 91.453125 -136.121094 L 89.746094 -136.691406 L 89.9375 -137.265625 L 91.644531 -136.699219 L 89.847656 -136.699219 L 89.847656 -139.191406 L 91.644531 -139.191406 L 90.371094 -137.917969 L 89.605469 -138.6875 L 90.875 -139.957031 L 90.875 -138.160156 L 90.492188 -138.160156 C 87.230469 -138.160156 84.40625 -139.203125 82.023438 -141.289062 C 79.652344 -143.363281 78.242188 -145.832031 77.789062 -148.6875 L 79.566406 -148.96875 L 78.488281 -147.53125 L 77.71875 -148.105469 L 78.796875 -149.542969 L 78.796875 -147.746094 L 0 -147.746094 L 0 -149.542969 L 1.796875 -149.542969 L 1.796875 -147.816406 L 0 -147.816406 L 1.246094 -149.113281 L 6.972656 -143.597656 L 6.972656 -134.398438 L 5.175781 -134.398438 L 5.246094 -136.195312 L 11.972656 -135.933594 L 11.574219 -80.726562 L 11.96875 -13.925781 L 5.175781 -13.925781 L 5.175781 -15.722656 L 6.972656 -15.722656 L 6.972656 -5.945312 L 1.246094 -0.429688 L 0 -1.726562 L 1.796875 -1.726562 L 1.796875 0 L 0 0 L 0 -1.796875 L 52.722656 -1.796875 L 52.722656 0 L 50.925781 0 L 50.925781 -1.726562 L 52.722656 -1.726562 L 51.476562 -0.429688 L 45.75 -5.945312 L 45.75 -15.722656 L 47.546875 -15.722656 L 47.546875 -13.925781 L 40.957031 -13.925781 L 40.957031 -55.03125 L 51.039062 -64.59375 L 68.070312 -13.925781 L 60.585938 -13.925781 L 60.585938 -15.722656 L 62.382812 -15.722656 L 62.382812 -5.945312 L 56.65625 -0.429688 L 55.40625 -1.726562 L 57.207031 -1.726562 L 57.207031 0 L 55.40625 0 L 55.40625 -1.796875 L 102.1875 -1.796875 L 102.1875 0 L 100.390625 0 L 100.390625 -1.726562 L 102.1875 -1.726562 L 100.917969 -0.453125 Z M 52.84375 -83.589844 L 52.84375 -130.371094 C 52.84375 -130.558594 52.542969 -130.996094 51.945312 -131.679688 C 51.410156 -132.292969 50.835938 -132.601562 50.230469 -132.601562 L 42.753906 -132.601562 L 42.753906 -134.398438 L 44.550781 -134.398438 L 44.550781 -73.621094 L 42.753906 -73.621094 L 41.597656 -75 L 53.484375 -84.96875 L 54.640625 -83.589844 Z M 56.4375 -82.753906 L 40.957031 -69.769531 L 40.957031 -136.195312 L 50.230469 -136.195312 C 51.925781 -136.195312 53.398438 -135.480469 54.652344 -134.046875 C 55.84375 -132.6875 56.4375 -131.460938 56.4375 -130.371094 Z M 56.4375 -82.753906 "/></g></g></g></g></g></g></g></svg>